<svg version="1.1" id="Layer_1" xmlns="http://www.w3.org/2000/svg" xmlns:xlink="http://www.w3.org/1999/xlink" x="0px" y="0px"
	 width="100%" viewBox="0 0 500 500" enable-background="new 0 0 500 500" xml:space="preserve">

<path fill="#098EC1" opacity="1.000000" stroke="none" 
	d="
M208.011307,271.990387 
	C204.791245,268.887329 201.393143,265.945770 198.395660,262.640839 
	C194.545151,258.395325 195.700317,253.837799 200.653763,250.789902 
	C206.937042,246.923798 213.144424,247.421463 219.531219,250.274521 
	C220.988464,250.925476 222.539856,251.365677 224.791321,251.860443 
	C227.033386,252.013824 228.532028,252.209686 229.920959,252.782745 
	C229.310944,253.555176 228.810623,253.950378 228.310303,254.345581 
	C229.527847,254.774399 230.902100,255.800064 231.935745,255.528625 
	C236.399460,254.356461 238.742859,251.088318 239.093246,246.599014 
	C239.541092,240.861023 239.870865,235.101044 239.877121,229.350143 
	C239.878723,227.880539 238.469315,226.409409 237.708221,224.577606 
	C237.423920,221.533188 237.139557,218.850174 236.855194,216.167160 
	C237.900116,212.925095 239.431656,209.741089 239.827744,206.421600 
	C240.116898,203.998383 238.910660,201.396744 238.165161,198.382782 
	C240.206467,195.024017 242.453629,192.157074 244.700790,189.290131 
	C245.617294,188.714691 246.533798,188.139267 248.013641,187.574921 
	C250.769028,187.444366 252.961121,187.302719 255.153198,187.161057 
	C256.425079,188.397537 257.696930,189.634033 259.588928,191.015381 
	C261.999664,193.542984 263.790253,195.925735 265.580811,198.308487 
	C264.994171,199.888550 263.936157,201.458862 263.903320,203.050369 
	C263.768311,209.590561 263.836945,216.142273 264.142670,222.675140 
	C264.181396,223.502274 266.440613,225.135590 267.035126,224.885269 
	C272.731049,222.486694 275.877899,226.642670 279.770660,229.253326 
	C281.340179,230.305908 283.828064,231.238586 285.437164,230.739624 
	C289.642120,229.435669 293.060547,230.131805 295.719147,233.403412 
	C298.309204,236.590622 301.364716,237.687317 305.323639,237.030457 
	C308.943634,236.429825 311.278900,237.955109 312.541107,241.503662 
	C319.584503,261.305389 318.036407,280.285034 305.860657,297.532043 
	C299.131439,307.063965 289.297943,312.954529 277.564026,314.886108 
	C261.751434,317.489136 249.142029,310.560486 237.570450,300.906067 
	C235.661072,299.313019 234.014465,297.405060 232.167740,295.262146 
	C232.089066,294.881683 232.211258,294.723907 232.549454,294.816772 
	C234.605560,295.092621 237.189713,297.201019 237.287506,293.173279 
	C238.787491,294.445099 239.861877,295.754456 241.166153,296.767944 
	C251.613281,304.885864 262.600952,311.831146 276.698090,309.066254 
	C289.519226,306.551666 299.211487,299.554047 305.225281,287.710480 
	C309.363525,279.560760 310.703400,270.682281 310.644348,261.866455 
	C310.599792,255.218246 308.318939,248.585007 307.033447,241.945114 
	C306.312531,241.860229 305.591614,241.775360 304.870697,241.690475 
	C302.573456,244.517349 300.276184,247.344223 297.019379,251.351868 
	C296.157104,247.731842 295.186432,245.570435 295.232941,243.431152 
	C295.315582,239.631805 293.098297,237.454712 290.098145,237.278702 
	C288.024628,237.157043 285.717773,239.197403 283.695679,240.542908 
	C281.805786,241.800446 280.153809,243.415527 278.397125,244.873260 
	C277.648376,242.698120 276.896790,240.523972 276.157166,238.345734 
	C276.106140,238.195572 276.214203,237.958405 276.131470,237.856827 
	C274.509338,235.865036 273.228119,232.881622 271.150330,232.141464 
	C267.997620,231.018402 265.558319,233.129349 264.862915,236.657318 
	C264.642029,237.778229 264.503265,239.015671 263.916107,239.938385 
	C263.199463,241.064636 261.780426,242.869186 261.143250,242.689041 
	C259.771149,242.301208 258.325287,241.036880 257.624695,239.743851 
	C256.977783,238.549820 257.161804,236.850449 257.156036,235.372971 
	C257.113098,224.385071 257.096893,213.396957 257.112518,202.408981 
	C257.116821,199.378860 256.218475,197.023483 252.758209,197.030365 
	C249.847885,197.036148 247.062973,197.532089 246.826691,201.441132 
	C246.679428,203.877670 246.029190,206.295654 246.005753,208.725815 
	C245.893387,220.379272 246.264313,232.049957 245.730484,243.680878 
	C245.503174,248.633743 246.394867,254.505890 240.986816,257.574341 
	C244.177597,249.632111 244.114365,241.694748 244.110046,233.684372 
	C244.104340,223.067001 245.126862,212.423950 244.632278,201.842194 
	C244.368866,196.206375 248.405136,195.861679 251.285492,194.922363 
	C252.906906,194.393585 256.549194,196.491730 257.514923,198.332870 
	C259.084473,201.325195 259.810333,205.075989 259.819489,208.509506 
	C259.843536,217.546906 259.232086,226.584549 259.028839,235.625565 
	C258.998169,236.989578 259.798462,238.372269 260.214386,239.746338 
	C260.721222,239.905411 261.228088,240.064484 261.734924,240.223557 
	C261.716156,233.871948 264.554504,229.941391 270.496826,230.169281 
	C278.324005,230.469452 277.862976,237.151276 278.311188,242.977158 
	C282.245209,239.476654 285.606140,236.486084 289.034393,233.435638 
	C288.726379,233.373184 287.908661,232.928833 287.306305,233.129837 
	C282.959869,234.580383 280.015808,233.237061 276.880402,229.805099 
	C275.136688,227.896423 271.250244,227.122864 268.385254,227.237045 
	C262.899139,227.455704 262.086273,227.176620 262.050629,221.542725 
	C262.009583,215.050842 262.179443,208.554398 261.992340,202.067581 
	C261.807220,195.649857 257.466125,191.818527 250.973846,191.957428 
	C246.043671,192.062912 241.284225,196.970825 241.346268,202.106537 
	C241.494781,214.401154 242.016678,226.699066 241.814087,238.986206 
	C241.733749,243.858307 240.380814,248.773132 239.076828,253.522888 
	C238.680939,254.964935 236.692459,256.492523 235.118652,256.994995 
	C229.303802,258.851501 224.864594,255.611359 220.150375,252.747360 
	C213.947830,248.979218 205.478363,248.874969 200.407211,253.971603 
	C198.086838,256.303650 197.102142,258.205383 199.820541,261.104889 
	C202.917160,264.407776 205.499939,268.192383 208.232391,271.823364 
	C208.158752,271.879120 208.011307,271.990387 208.011307,271.990387 
z"/>
<path fill="#B4C2CB" opacity="1.000000" stroke="none" 
	d="
M244.349365,189.221191 
	C242.453629,192.157074 240.206467,195.024017 237.764328,198.165955 
	C231.851898,204.467545 226.038803,210.407028 220.447479,216.548447 
	C216.039993,221.389587 210.558472,222.934296 204.364014,222.227158 
	C200.146332,221.745651 196.722275,222.424835 193.475433,225.544525 
	C189.084503,229.763535 183.545700,229.745834 179.486908,226.219269 
	C176.471237,223.599030 175.324417,216.454758 177.327469,212.766693 
	C179.636292,208.515625 188.024414,207.159912 192.419052,210.327545 
	C201.711029,217.025146 210.083786,216.363220 217.942856,208.188232 
	C220.355057,205.679047 222.417770,202.830353 224.864456,200.358826 
	C227.276230,197.922562 229.971664,195.767105 232.198746,193.793259 
	C225.445770,186.649918 219.123306,179.623077 212.353378,173.057663 
	C210.812317,171.563141 207.750946,171.299561 205.339874,171.114883 
	C201.366058,170.810532 197.297165,170.630173 193.372787,171.164520 
	C190.435867,171.564423 187.250610,172.612823 184.898911,174.350800 
	C179.048782,178.674164 173.972885,178.711380 169.510208,173.693848 
	C166.050659,169.804169 166.589005,163.015289 170.648605,159.337662 
	C175.316513,155.108963 180.830414,155.868637 185.867844,161.096191 
	C186.957581,162.227081 188.908325,163.023651 190.498474,163.088257 
	C196.318146,163.324677 202.153290,163.221634 207.982101,163.178940 
	C212.359222,163.146881 215.939941,164.508408 219.042389,167.842560 
	C224.483902,173.690414 230.116882,179.385956 236.005966,184.778000 
	C238.181335,186.769745 241.306152,187.724518 244.349365,189.221191 
M190.039459,217.713181 
	C188.629761,214.990707 186.569748,214.793533 184.678848,216.873215 
	C184.098999,217.510956 184.365753,220.002487 185.075577,220.532547 
	C187.540085,222.372803 189.232803,221.108994 190.039459,217.713181 
z"/>
<path fill="#B6C2CB" opacity="1.000000" stroke="none" 
	d="
M255.093445,186.767273 
	C252.961121,187.302719 250.769028,187.444366 248.286804,187.345215 
	C248.382980,181.710800 245.241684,178.211899 241.659210,174.794693 
	C236.000076,169.396591 230.257233,164.039444 225.119537,158.166565 
	C223.285065,156.069565 222.342285,152.528885 222.324219,149.638840 
	C222.281067,142.738831 222.432419,136.291321 216.313904,131.156097 
	C212.942932,128.326859 217.586838,119.211601 222.835922,117.572670 
	C227.259735,116.191414 232.023254,117.839409 234.656952,121.662285 
	C237.205093,125.360977 236.919708,130.430786 233.957443,134.088516 
	C228.491028,140.838394 228.244232,149.679443 234.084473,156.073929 
	C239.546936,162.054764 245.655884,167.445145 252.131332,173.099487 
	C253.192200,172.745575 253.602020,172.387573 254.011856,172.029572 
	C254.011856,172.029572 253.997879,171.999161 254.249100,171.926361 
	C254.800201,171.658615 254.969299,171.383301 255.007614,171.027649 
	C255.007614,171.027649 254.997559,170.997314 255.249054,170.924866 
	C255.800522,170.658478 255.969727,170.383911 256.008148,170.028732 
	C256.008148,170.028732 255.997559,169.997314 256.249756,169.924606 
	C256.800171,169.655930 256.969849,169.380692 257.010956,169.026184 
	C257.010956,169.026184 256.998779,168.998428 257.248779,168.925659 
	C257.797974,168.658844 257.969330,168.384827 258.012817,168.030853 
	C258.012817,168.030853 257.998779,167.997971 258.252228,167.929092 
	C258.807037,167.666656 258.976898,167.391815 259.015320,167.035690 
	C259.015320,167.035690 258.998779,166.998428 259.253082,166.927826 
	C259.805664,166.661255 259.972473,166.385696 260.007782,166.030518 
	C260.007782,166.030518 259.997131,165.997055 260.250122,165.925507 
	C260.803253,165.659882 260.970398,165.384918 261.004517,165.029083 
	C261.004517,165.029083 260.996338,164.996078 261.249847,164.924576 
	C261.804291,164.659760 261.973969,164.385284 262.012451,164.029648 
	C262.012451,164.029648 261.998779,163.998230 262.250854,163.926178 
	C262.801880,163.659424 262.974518,163.385193 263.020905,163.031448 
	C263.020905,163.031448 263.000000,162.999390 263.251892,162.928223 
	C263.803070,162.662277 263.975677,162.387802 264.021576,162.033630 
	C264.021576,162.033630 264.000000,161.999390 264.253174,161.930298 
	C264.806427,161.668030 264.979065,161.394440 265.024292,161.040421 
	C265.024292,161.040421 265.000092,160.999207 265.256592,160.929382 
	C265.807373,160.658096 265.975586,160.380295 266.017670,160.026123 
	C266.017670,160.026123 266.000000,159.999481 266.249969,159.929077 
	C266.804565,159.669708 266.979462,159.397415 267.024628,159.041794 
	C267.024628,159.041794 267.000000,158.999496 267.256775,158.929932 
	C267.808167,158.660446 267.976898,158.383713 268.019684,158.030182 
	C268.019684,158.030182 268.000000,157.999390 268.251495,157.927765 
	C268.801483,157.660339 268.974335,157.385513 269.021606,157.031662 
	C269.021606,157.031662 269.000000,156.999390 269.251892,156.928009 
	C269.801727,156.660736 269.974823,156.386108 270.023041,156.032761 
	C270.023041,156.032761 270.000000,155.999390 270.252716,155.928741 
	C270.803711,155.662033 270.976379,155.387054 271.023407,155.033173 
	C271.023407,155.033173 271.000000,154.999054 271.266754,154.901154 
	C271.728485,154.318832 271.923462,153.834396 272.118408,153.349960 
	C272.118439,153.349960 272.191925,153.097763 272.504517,152.967194 
	C273.021240,152.611130 273.096649,152.348602 273.043335,152.049042 
	C273.043335,152.049042 273.093903,151.563370 273.541321,151.171509 
	C274.147858,143.772995 274.320679,136.766525 274.414948,129.758987 
	C274.418640,129.484314 273.671265,129.199554 273.273834,128.919495 
	C271.833191,127.323067 270.273102,125.817474 268.975830,124.111984 
	C265.942871,120.124664 266.548096,114.811928 270.322571,111.085114 
	C273.750092,107.700882 279.917847,107.393776 283.876740,110.410194 
	C287.653137,113.287560 289.545807,119.515572 286.255798,122.678352 
	C279.891876,128.796143 280.459351,136.201843 281.192780,143.437454 
	C282.087524,152.264862 278.768860,158.699249 272.584106,164.389267 
	C268.070404,168.541916 263.570740,172.774185 259.602661,177.429459 
	C257.489899,179.908112 256.519653,183.360580 255.093445,186.767273 
M276.861877,114.888870 
	C276.360626,116.560532 275.859344,118.232185 275.358063,119.903847 
	C276.663757,119.818993 278.540710,120.248436 279.167389,119.552307 
	C281.006317,117.509628 280.329681,115.714096 276.861877,114.888870 
z"/>
<path fill="#B4C2CB" opacity="1.000000" stroke="none" 
	d="
M265.769897,198.575241 
	C263.790253,195.925735 261.999664,193.542984 259.950195,190.965942 
	C259.625092,190.311005 259.448242,189.461761 259.508423,189.444626 
	C270.166748,186.408829 275.257904,176.673920 282.672821,169.838654 
	C287.405945,165.475525 292.033936,162.692596 298.520081,163.366226 
	C303.087952,163.840652 307.072815,163.058060 310.798370,159.658447 
	C314.157867,156.592880 318.670624,156.014038 322.753967,159.004791 
	C326.315552,161.613403 327.428864,165.200119 326.502441,169.550903 
	C325.441956,174.531311 321.549835,176.814651 317.405701,177.543091 
	C315.228790,177.925751 312.287537,175.700867 310.122620,174.078186 
	C304.058594,169.532974 295.495575,169.166809 289.682983,174.205307 
	C283.055023,179.950546 276.860016,186.195236 270.425262,192.271561 
	C273.348236,195.535629 275.994354,198.490540 278.892395,201.973846 
	C279.342865,202.797745 279.618439,202.969849 279.971069,203.018570 
	C279.971069,203.018570 280.000763,202.999390 280.074341,203.249374 
	C280.342804,203.796814 280.616364,203.970306 280.968536,204.019852 
	C280.968536,204.019852 281.000824,203.999390 281.070374,204.249481 
	C281.329193,204.796875 281.597961,204.972488 281.946289,205.026413 
	C281.946289,205.026413 282.000763,205.003754 282.055237,205.264069 
	C282.291748,205.826874 282.558441,205.995270 282.909821,206.029556 
	C282.909821,206.029556 282.981873,206.020752 283.039612,206.286697 
	C283.278717,206.847672 283.542053,207.009125 283.887329,207.036987 
	C283.887329,207.036987 283.970001,207.034515 284.033142,207.303009 
	C284.279907,207.862564 284.543427,208.019058 284.886841,208.040955 
	C284.886841,208.040955 284.961609,208.024979 284.978088,208.422058 
	C286.317810,209.885056 287.641022,210.951004 288.964264,212.016953 
	C288.964264,212.016953 289.003235,212.000000 289.074005,212.255737 
	C289.343048,212.809631 289.620636,212.973389 289.977570,213.002731 
	C289.977570,213.002731 290.002167,212.996277 290.063202,213.352631 
	C292.697296,214.163528 295.270386,214.618042 297.843445,215.072556 
	C298.037048,215.096344 298.230652,215.120117 299.022064,215.459106 
	C301.877411,216.101532 304.147705,216.760193 306.389221,216.673584 
	C309.312653,216.560623 312.213226,215.857010 315.123657,215.407562 
	C315.278595,215.323044 315.433502,215.238510 316.023376,215.111908 
	C316.707275,215.017868 316.880310,214.874374 316.977386,214.639343 
	C317.133728,214.512527 317.290100,214.385696 317.959412,214.049622 
	C318.652222,213.565445 318.832031,213.290512 319.011841,213.015564 
	C319.011871,213.015579 319.000000,213.000000 319.243622,212.928345 
	C319.786987,212.667404 319.962341,212.397369 320.013336,212.046570 
	C320.013336,212.046570 320.000031,211.997116 320.255890,211.945068 
	C320.811554,211.718658 320.981201,211.459198 321.020691,211.114639 
	C321.020691,211.114639 321.029327,211.021759 321.512573,211.035309 
	C324.853485,211.360596 328.068420,210.949707 330.488495,212.146347 
	C334.541870,214.150589 332.842041,218.433380 332.939270,221.906357 
	C332.939270,221.906357 332.998810,221.971573 332.604492,221.905777 
	C331.498291,220.200714 330.786407,218.561447 329.876007,216.758026 
	C329.480377,216.313919 329.283295,216.033951 328.969910,215.544998 
	C328.614624,215.090836 328.324707,214.984375 327.634399,215.008514 
	C322.329376,214.850449 320.510986,216.928940 322.819580,220.608002 
	C323.650940,221.932907 326.168793,222.199570 328.216370,222.997086 
	C328.661652,223.929886 328.807556,224.814774 328.953491,225.699646 
	C325.623962,228.147003 322.980896,225.764175 320.020508,224.635025 
	C316.750885,223.387939 313.277985,221.962082 309.870758,221.901703 
	C285.751038,221.474228 292.516724,224.558105 274.781921,207.676285 
	C271.768402,204.807724 268.896362,201.790527 265.769897,198.575241 
M316.880493,170.273972 
	C318.240448,169.242203 319.731293,168.324753 320.831299,167.065857 
	C321.014252,166.856476 319.629883,164.500122 318.727112,164.314255 
	C317.569946,164.076019 315.135559,164.917801 315.072418,165.493896 
	C314.912018,166.956787 315.766235,168.530930 316.880493,170.273972 
z"/>
<path fill="#E3F1F7" opacity="1.000000" stroke="none" 
	d="
M281.927551,348.085266 
	C283.007324,356.905701 280.740326,361.174042 272.978027,365.389709 
	C276.268188,368.748535 276.268188,368.748535 281.903961,365.623535 
	C282.607391,366.808197 283.317474,368.004028 284.011353,369.172607 
	C277.293274,373.993164 273.564819,373.691528 268.030640,368.345642 
	C267.045807,367.394318 265.659332,366.633453 264.329346,366.301636 
	C256.131836,364.256470 251.301056,358.896179 251.291489,351.600922 
	C251.282684,344.866577 256.338684,338.631409 262.930298,337.247772 
	C270.981903,335.557678 277.866577,338.935242 281.378662,346.309753 
	C281.590424,346.754425 281.721039,347.237701 281.927551,348.085266 
M276.991547,352.302246 
	C276.811249,351.168152 276.779480,349.985229 276.425446,348.908234 
	C274.692993,343.638031 270.240051,341.037567 264.800934,342.023804 
	C259.713623,342.946228 256.828735,346.940552 257.180481,352.574860 
	C257.472748,357.256439 260.545288,360.613190 265.177124,361.311218 
	C270.948975,362.181061 274.553589,359.637146 276.991547,352.302246 
z"/>
<path fill="#E3F1F7" opacity="1.000000" stroke="none" 
	d="
M195.989258,363.802582 
	C195.986343,354.728546 195.986343,346.137848 195.986343,337.136627 
	C200.785538,337.136627 205.570496,336.803406 210.291153,337.212372 
	C217.950653,337.875946 223.233856,344.504852 222.909607,352.419250 
	C222.592102,360.169220 217.021149,365.751312 209.237503,365.989594 
	C205.588882,366.101318 201.929230,366.108459 198.285843,365.931244 
	C197.496475,365.892853 196.755463,364.860443 195.989258,363.802582 
M200.997177,347.592468 
	C200.997177,352.034393 200.997177,356.476318 200.997177,361.295929 
	C206.672684,360.921173 212.948868,363.057495 215.845383,356.771912 
	C217.165787,353.906616 217.206177,349.397217 215.857971,346.573853 
	C212.968765,340.523407 206.848190,341.877136 201.234558,342.048218 
	C201.148758,343.703918 201.073196,345.162231 200.997177,347.592468 
z"/>
<path fill="#B4C2CB" opacity="1.000000" stroke="none" 
	d="
M196.971985,201.241547 
	C191.639587,196.050598 191.024200,190.847839 194.907089,186.122803 
	C197.663483,182.768600 203.933853,181.585938 207.568085,183.734833 
	C212.517181,186.661179 214.245377,192.323807 211.790955,197.571472 
	C209.334396,202.823685 203.820343,204.307663 196.971985,201.241547 
M200.818436,193.272476 
	C202.280930,193.823212 203.743423,194.373947 205.205902,194.924698 
	C205.178391,193.533722 205.720596,191.516922 205.013123,190.872864 
	C203.130096,189.158646 201.428726,189.840515 200.818436,193.272476 
z"/>
<path fill="#B4C2CB" opacity="1.000000" stroke="none" 
	d="
M253.294830,133.041687 
	C260.120117,135.493256 262.975800,139.868927 261.678009,145.472687 
	C260.582550,150.202774 255.833725,153.633926 250.975754,153.205322 
	C245.285843,152.703323 241.345734,148.549591 241.385742,143.095413 
	C241.428116,137.317535 246.272018,133.057434 253.294830,133.041687 
M248.001633,143.295700 
	C249.690964,144.270172 251.328186,145.389008 253.133942,146.041016 
	C253.366302,146.124893 254.946320,143.810806 255.010361,142.561829 
	C255.053802,141.715012 253.318710,139.919479 252.758942,140.060150 
	C251.084183,140.481003 249.596283,141.645538 248.001633,143.295700 
z"/>
<path fill="#E3F1F7" opacity="1.000000" stroke="none" 
	d="
M289.987305,356.958221 
	C289.987213,350.176880 289.987213,343.889557 289.987213,337.321411 
	C296.413879,337.321411 302.785645,337.321411 309.399017,337.321411 
	C309.399017,338.774445 309.399017,340.138123 309.399017,341.871552 
	C304.526672,341.871552 299.932159,341.871552 295.375580,341.871552 
	C295.375580,344.515991 295.375580,346.786621 295.375580,349.427704 
	C299.512817,349.427704 303.449036,349.427704 307.708771,349.427704 
	C307.826233,351.172272 307.920288,352.569275 308.042480,354.384155 
	C303.678802,354.384155 299.602631,354.384155 295.101929,354.384155 
	C295.101929,358.350555 295.101929,361.932312 295.101929,365.758972 
	C293.281036,365.758972 291.882111,365.758972 289.987396,365.758972 
	C289.987396,363.003296 289.987396,360.227783 289.987305,356.958221 
z"/>
<path fill="#B4C2CB" opacity="1.000000" stroke="none" 
	d="
M236.560059,216.273315 
	C237.139557,218.850174 237.423920,221.533188 237.562714,224.851868 
	C234.452545,229.449539 229.249329,231.962738 229.611435,238.067032 
	C229.894455,242.838028 229.901169,247.625427 230.030655,252.405533 
	C228.532028,252.209686 227.033386,252.013824 225.207977,251.745270 
	C224.045593,248.754776 223.034363,245.874207 222.406799,242.912338 
	C220.407104,233.474396 224.386383,226.430695 231.534073,220.690201 
	C233.194214,219.356873 234.692291,217.821747 236.560059,216.273315 
z"/>
<path fill="#B4C2CB" opacity="1.000000" stroke="none" 
	d="
M291.366302,193.006561 
	C292.043335,188.003754 294.147827,183.877045 298.942322,183.436661 
	C302.175293,183.139694 306.313293,184.336578 308.817627,186.374939 
	C312.830719,189.641373 311.805756,196.703491 307.729370,199.873428 
	C302.753662,203.742722 296.706238,203.158829 293.454193,198.321777 
	C292.474152,196.864090 292.037537,195.041061 291.366302,193.006561 
M304.064606,191.084030 
	C302.433411,191.189926 300.802185,191.295822 299.170990,191.401718 
	C299.755585,192.596603 300.340149,193.791504 300.924713,194.986404 
	C302.076355,193.914795 303.227966,192.843201 304.064606,191.084030 
z"/>
<path fill="#E3F1F7" opacity="1.000000" stroke="none" 
	d="
M229.989746,339.295166 
	C231.391479,338.048798 232.790497,337.275146 234.905029,336.105804 
	C234.905029,345.147736 234.905029,352.887939 234.905029,361.036560 
	C239.117661,361.036560 243.007477,361.036560 247.302292,361.036560 
	C247.469711,362.763184 247.601151,364.118713 247.761047,365.767761 
	C241.474976,365.767761 235.560608,365.767761 229.987045,365.767761 
	C229.987045,357.100006 229.987045,348.433929 229.989746,339.295166 
z"/>
<path fill="#ADD4EB" opacity="1.000000" stroke="none" 
	d="
M241.382660,441.643066 
	C241.708817,440.452698 242.034943,439.262299 242.361069,438.071930 
	C242.697327,438.082458 243.033585,438.092987 243.369843,438.103516 
	C243.369843,441.738861 243.369843,445.374207 243.369843,448.868652 
	C240.874191,448.660095 238.097519,448.428070 235.126343,448.179810 
	C235.126343,445.504425 235.126343,442.425598 235.126343,437.610657 
	C237.292786,439.829529 238.556107,441.123444 240.217621,442.971924 
	C240.997543,443.644043 241.379257,443.761566 241.760956,443.879120 
	C241.634857,443.133759 241.508759,442.388428 241.382660,441.643066 
z"/>
<path fill="#ADD4EB" opacity="1.000000" stroke="none" 
	d="
M205.487427,398.033813 
	C211.415939,400.191132 205.967346,404.647308 207.890228,407.540436 
	C205.469299,408.245697 203.048386,408.950958 200.776855,409.612671 
	C200.776855,405.159027 200.776855,401.797028 200.776855,398.202728 
	C202.487320,398.123840 203.790665,398.063721 205.487427,398.033813 
z"/>
<path fill="#9DC5DE" opacity="1.000000" stroke="none" 
	d="
M299.014740,388.868805 
	C295.446014,389.329376 292.186707,389.249695 291.310272,384.517700 
	C291.057220,386.025818 290.804138,387.533936 290.551086,389.042053 
	C290.189789,389.014496 289.828461,388.986969 289.467163,388.959412 
	C289.467163,385.399139 289.467163,381.838867 289.467163,378.278595 
	C289.769806,378.047791 290.072449,377.817017 290.375061,377.586212 
	C291.688293,379.674469 293.001526,381.762756 294.511200,384.163422 
	C295.208221,383.131836 295.811707,382.238708 296.889221,381.435486 
	C297.913757,383.973175 298.464233,386.420990 299.014740,388.868805 
z"/>
<path fill="#9DC5DE" opacity="1.000000" stroke="none" 
	d="
M288.837524,408.167480 
	C287.605316,408.233276 286.591583,408.619965 284.994354,409.229248 
	C284.706635,406.717346 284.019989,403.814880 284.231262,400.979340 
	C284.310944,399.909698 286.597900,398.091431 287.645050,398.241760 
	C288.907806,398.423004 290.554230,400.174957 290.898285,401.534546 
	C291.435425,403.657043 291.042725,406.022675 290.921021,408.278687 
	C290.915466,408.381836 289.705170,408.419952 288.837524,408.167480 
z"/>
<path fill="#9DC5DE" opacity="1.000000" stroke="none" 
	d="
M190.211426,418.732605 
	C191.120682,422.793488 191.711197,426.590363 192.341827,430.645203 
	C183.732803,428.627502 181.856842,426.789642 183.099869,421.786285 
	C184.006012,418.138977 186.437881,417.138733 190.211426,418.732605 
M189.647324,426.194122 
	C189.614471,424.574249 189.921463,422.827972 189.388168,421.394257 
	C189.162277,420.786987 187.171051,420.836395 185.982178,420.587341 
	C185.701431,422.173126 184.908829,423.917816 185.333160,425.284668 
	C185.585068,426.096130 187.754639,426.312256 189.647324,426.194122 
z"/>
<path fill="#9DC5DE" opacity="1.000000" stroke="none" 
	d="
M271.011292,408.907257 
	C270.046906,407.841919 268.845612,406.852417 268.917816,405.966766 
	C269.119812,403.489197 269.400024,400.792969 270.599274,398.737152 
	C271.052185,397.960724 275.324341,398.067657 275.747742,398.875977 
	C276.919800,401.113708 277.757446,404.127655 277.174896,406.444458 
	C276.855713,407.713928 273.398102,408.194305 271.011292,408.907257 
M271.121979,406.400726 
	C273.465302,407.376526 275.685333,407.572693 275.593475,404.214081 
	C275.554260,402.780334 274.248108,401.381226 273.517670,399.966400 
	C272.629486,401.534027 271.720276,403.090454 270.875671,404.681244 
	C270.748627,404.920563 270.923584,405.320251 271.121979,406.400726 
z"/>
<path fill="#89A8BF" opacity="1.000000" stroke="none" 
	d="
M279.751495,380.322083 
	C280.955750,380.660339 281.859619,381.032532 282.763519,381.404724 
	C282.742859,381.494263 282.722229,381.583801 282.701599,381.673340 
	C281.821442,381.449738 280.941284,381.226105 280.078278,381.006836 
	C281.277679,383.255646 283.661011,385.643982 283.302399,387.503540 
	C282.642944,390.923218 277.379456,390.009705 274.975037,385.629425 
	C276.502258,385.783447 277.705200,385.904785 279.252625,386.060852 
	C277.808655,384.258881 276.577393,382.722351 274.942902,380.682587 
	C276.918243,380.539520 278.184662,380.447784 279.751495,380.322083 
z"/>
<path fill="#9DC5DE" opacity="1.000000" stroke="none" 
	d="
M211.192596,427.153564 
	C212.504669,423.811798 213.707214,420.840118 214.909775,417.868469 
	C215.325378,417.818726 215.740982,417.768982 216.156586,417.719208 
	C217.657532,421.282410 219.158478,424.845612 220.374893,427.733337 
	C217.229843,428.140533 214.301697,428.526154 211.365952,428.840973 
	C211.319290,428.845978 211.179428,427.982056 211.192596,427.153564 
z"/>
<path fill="#9DC5DE" opacity="1.000000" stroke="none" 
	d="
M253.175964,438.159302 
	C255.336502,441.484680 257.137482,444.942413 259.372711,449.233826 
	C255.156906,448.680603 252.227768,443.156952 249.366287,451.045013 
	C249.141434,450.235016 248.916565,449.425018 248.691711,448.615021 
	C250.066605,445.173889 251.441513,441.732788 253.175964,438.159302 
z"/>
<path fill="#9DC5DE" opacity="1.000000" stroke="none" 
	d="
M260.412323,388.260620 
	C257.912323,388.110809 255.627258,388.301788 253.056198,388.516663 
	C254.339737,385.029419 255.650864,381.467194 256.962006,377.904968 
	C257.448059,377.811432 257.934143,377.717896 258.420197,377.624329 
	C259.870911,381.232941 261.321594,384.841553 262.772308,388.450165 
	C262.057281,388.500610 261.342255,388.551025 260.412323,388.260620 
z"/>
<path fill="#9DC5DE" opacity="1.000000" stroke="none" 
	d="
M324.690857,408.636841 
	C322.436981,408.540771 319.051331,408.766510 318.508545,407.632019 
	C317.462891,405.446564 317.522980,402.359680 318.165222,399.920685 
	C318.425446,398.932465 322.350159,397.671570 322.967377,398.258698 
	C324.509644,399.725830 325.433990,402.101257 325.966034,404.269348 
	C326.259155,405.463837 325.259888,406.975464 324.690857,408.636841 
M321.610382,399.923981 
	C320.952911,401.935181 320.218353,403.929535 319.770172,405.986359 
	C319.730103,406.170258 321.547729,406.758972 322.502594,407.159698 
	C322.863739,405.076752 323.268341,402.999207 323.529663,400.903809 
	C323.561493,400.648621 322.822723,400.297363 321.610382,399.923981 
z"/>
<path fill="#9DC5DE" opacity="1.000000" stroke="none" 
	d="
M311.315430,426.500793 
	C310.266388,423.607422 309.401062,421.029572 308.535767,418.451691 
	C309.023163,418.216370 309.510559,417.981018 309.997955,417.745697 
	C311.147095,420.068909 312.296204,422.392120 313.427887,424.680023 
	C314.464722,422.439697 315.543640,420.108429 316.622559,417.777161 
	C317.094391,417.954712 317.566223,418.132263 318.038055,418.309814 
	C317.149384,421.456665 316.498138,424.698242 315.292847,427.718750 
	C314.413208,429.923187 313.471405,429.644714 311.315430,426.500793 
z"/>
<path fill="#9DC5DE" opacity="1.000000" stroke="none" 
	d="
M226.127045,388.025452 
	C227.541275,384.354858 228.916931,381.077209 230.292587,377.799530 
	C230.711868,377.798645 231.131149,377.797791 231.550446,377.796906 
	C232.999374,381.346191 234.448318,384.895447 236.201431,389.189850 
	C234.829498,388.657593 234.068893,388.114838 233.306717,388.112640 
	C230.900955,388.105682 228.494598,388.301239 226.127045,388.025452 
z"/>
<path fill="#9DC5DE" opacity="1.000000" stroke="none" 
	d="
M278.115173,426.763611 
	C276.631866,427.560394 275.549347,428.351227 274.466858,429.142090 
	C274.143188,428.975708 273.819519,428.809326 273.495850,428.642944 
	C274.877197,424.988678 276.258545,421.334412 277.639893,417.680145 
	C278.129700,417.712555 278.619537,417.744965 279.109344,417.777405 
	C280.503448,421.321014 281.897522,424.864655 283.862610,429.859680 
	C281.217651,428.325165 279.866821,427.541443 278.115173,426.763611 
z"/>
<path fill="#9DC5DE" opacity="1.000000" stroke="none" 
	d="
M195.495087,407.412750 
	C195.192322,408.147797 194.708542,408.538544 194.224747,408.929260 
	C191.704926,405.317993 189.188797,406.319061 186.674774,409.917480 
	C186.442703,409.501038 186.210648,409.084625 185.978592,408.668182 
	C187.374176,405.056244 188.769760,401.444305 190.165359,397.832367 
	C190.617920,397.812164 191.070496,397.791962 191.523071,397.771759 
	C192.786728,400.870636 194.050400,403.969543 195.495087,407.412750 
z"/>
<path fill="#9DC5DE" opacity="1.000000" stroke="none" 
	d="
M250.167160,406.694336 
	C249.875107,407.642242 249.447388,408.230957 249.019653,408.819672 
	C246.521286,405.220123 244.098312,406.557800 240.863953,408.621368 
	C242.262344,405.050507 243.660751,401.479675 245.059143,397.908813 
	C245.516907,397.844696 245.974686,397.780579 246.432449,397.716461 
	C247.632126,400.589386 248.831802,403.462280 250.167160,406.694336 
z"/>
<path fill="#ADD4EB" opacity="1.000000" stroke="none" 
	d="
M222.107849,407.902924 
	C219.035233,409.242554 215.615952,411.021942 214.580780,406.592041 
	C214.030655,404.237885 215.040329,401.245667 216.152756,398.928864 
	C216.529144,398.144958 220.808502,398.175262 220.886871,398.472015 
	C221.669083,401.433441 221.945663,404.528412 222.107849,407.902924 
M216.379898,405.609772 
	C218.375076,408.610229 220.257904,408.105591 220.901794,404.944092 
	C221.204803,403.456360 219.927231,400.267792 219.091309,400.168793 
	C215.700745,399.767303 216.020554,402.565552 216.379898,405.609772 
z"/>
<path fill="#ADD4EB" opacity="1.000000" stroke="none" 
	d="
M219.106537,388.688293 
	C216.936264,388.869202 215.143585,388.869202 213.141708,388.869202 
	C213.141708,385.339813 213.141708,381.889313 213.141708,378.438782 
	C213.599487,378.369934 214.057266,378.301086 214.515045,378.232239 
	C214.699371,379.440826 214.982361,380.644318 215.044632,381.859161 
	C215.135574,383.633759 215.068039,385.416473 215.068039,387.461273 
	C220.777710,386.578400 219.537109,383.408752 218.324890,380.250366 
	C222.623123,381.383698 222.923615,383.524017 219.106537,388.688293 
z"/>
<path fill="#ADD4EB" opacity="1.000000" stroke="none" 
	d="
M229.543137,422.879059 
	C230.620773,422.851807 231.918488,422.829590 231.990204,422.521759 
	C232.324280,421.088013 232.319336,419.575287 232.435684,418.090820 
	C232.844620,418.127563 233.253540,418.164307 233.662476,418.201080 
	C233.662476,421.761261 233.662476,425.321442 233.662476,428.726440 
	C226.822998,429.210297 228.127930,423.068604 227.125671,420.140594 
	C227.376068,420.456116 228.287262,421.604340 229.543137,422.879059 
z"/>
<path fill="#9DC5DE" opacity="1.000000" stroke="none" 
	d="
M299.068298,407.335876 
	C297.819519,404.070404 296.569305,401.158203 295.319092,398.246002 
	C295.884827,397.727448 296.450562,397.208923 297.016296,396.690369 
	C298.136780,398.367096 299.257263,400.043793 300.415344,401.776764 
	C301.418701,400.513458 302.540192,399.101379 303.661682,397.689301 
	C303.879944,397.870331 304.098175,398.051361 304.316406,398.232391 
	C303.292694,401.635284 302.268951,405.038208 301.245209,408.441101 
	C300.519073,408.190430 299.792969,407.939789 299.068298,407.335876 
z"/>
<path fill="#89A8BF" opacity="1.000000" stroke="none" 
	d="
M242.298935,377.893616 
	C244.773483,377.888611 246.806274,377.888611 247.675369,377.888611 
	C246.719711,381.804993 245.898407,385.170837 244.738800,389.923035 
	C243.973526,387.887451 243.364578,386.801636 243.173416,385.646667 
	C242.790512,383.333069 244.383820,380.210571 240.424210,379.511871 
	C240.901871,378.974121 241.379517,378.436371 242.298935,377.893616 
z"/>
<path fill="#89A8BF" opacity="1.000000" stroke="none" 
	d="
M273.238770,129.393234 
	C273.671265,129.199554 274.418640,129.484314 274.414948,129.758987 
	C274.320679,136.766525 274.147858,143.772995 273.639435,150.947952 
	C273.261322,144.033157 273.232513,136.950058 273.238770,129.393234 
z"/>
<path fill="#89A8BF" opacity="1.000000" stroke="none" 
	d="
M217.874054,437.884338 
	C219.484009,438.064941 220.653030,438.245056 221.822037,438.425171 
	C221.822174,438.775085 221.822311,439.125000 221.822449,439.474915 
	C220.350906,439.750366 218.879349,440.025787 216.989014,440.379639 
	C216.689880,443.171326 216.374588,446.113953 216.059296,449.056580 
	C212.975708,441.537933 213.651505,438.654297 217.874054,437.884338 
z"/>
<path fill="#9DC5DE" opacity="1.000000" stroke="none" 
	d="
M277.940186,442.270142 
	C278.879089,440.707336 279.803833,439.558929 280.728607,438.410553 
	C279.785614,442.206146 278.632080,445.185547 282.357208,447.961639 
	C283.557526,446.936432 284.701355,445.959473 285.845184,444.982513 
	C286.226746,445.455231 286.608337,445.927948 286.989929,446.400665 
	C285.269745,447.441681 283.510071,449.410278 281.837311,449.338989 
	C277.817657,449.167694 277.761200,445.800934 277.940186,442.270142 
z"/>
<path fill="#89A8BF" opacity="1.000000" stroke="none" 
	d="
M258.090393,401.320496 
	C257.686340,400.161224 257.310730,399.448242 256.694855,398.279297 
	C259.301239,398.279297 261.556030,398.279297 262.735168,398.279297 
	C261.718109,401.990143 260.747833,405.530487 259.777527,409.070801 
	C259.224640,408.985596 258.671753,408.900421 258.118866,408.815216 
	C258.118866,406.465729 258.118866,404.116272 258.090393,401.320496 
z"/>
<path fill="#9DC5DE" opacity="1.000000" stroke="none" 
	d="
M263.946533,423.171204 
	C263.069122,421.405609 262.191071,420.071136 261.188477,418.547363 
	C263.520630,418.547363 266.428253,418.547363 269.335876,418.547363 
	C269.399750,418.766846 269.463654,418.986328 269.527527,419.205780 
	C268.446533,419.606293 267.365540,420.006775 265.877563,420.558014 
	C265.877563,423.257568 265.877563,426.123535 265.877563,428.989532 
	C265.421936,429.028961 264.966278,429.068420 264.510651,429.107849 
	C264.322388,427.272675 264.134155,425.437531 263.946533,423.171204 
z"/>
<path fill="#9DC5DE" opacity="1.000000" stroke="none" 
	d="
M245.850098,420.046387 
	C245.120972,423.053406 244.824326,425.980042 244.438019,429.791382 
	C241.462845,426.016418 246.015686,419.885071 239.381790,418.461975 
	C242.199799,418.461975 245.017822,418.461975 248.970978,418.461975 
	C247.467300,419.303223 246.874939,419.634613 245.850098,420.046387 
z"/>
<path fill="#ADD4EB" opacity="1.000000" stroke="none" 
	d="
M268.654694,443.219299 
	C269.132477,443.032959 269.987274,442.904266 270.026001,442.650848 
	C270.254242,441.157074 270.292542,439.634308 270.394806,438.121277 
	C270.833801,438.130096 271.272827,438.138885 271.711853,438.147675 
	C271.711853,441.683655 271.711853,445.219604 271.711853,449.595001 
	C270.432678,448.412048 269.380310,447.438782 268.199646,445.920288 
	C268.034668,444.928864 267.997925,444.482697 268.140991,443.837677 
	C268.432068,443.498962 268.543396,443.359131 268.654694,443.219299 
z"/>
<path fill="#9DC5DE" opacity="1.000000" stroke="none" 
	d="
M291.187866,426.251465 
	C291.095428,424.183472 291.095428,422.523315 291.095428,420.524292 
	C289.845551,420.132874 288.587128,419.738800 287.328705,419.344727 
	C287.352325,419.057861 287.375946,418.770966 287.399597,418.484100 
	C290.240356,418.484100 293.081146,418.484100 294.988525,418.484100 
	C294.314484,420.857086 293.684021,423.319855 292.870514,425.720581 
	C292.720825,426.162384 291.829407,426.352844 291.187866,426.251465 
z"/>
<path fill="#89A8BF" opacity="1.000000" stroke="none" 
	d="
M333.219849,221.653442 
	C332.842041,218.433380 334.541870,214.150589 330.488495,212.146347 
	C328.068420,210.949707 324.853485,211.360596 321.558472,211.043671 
	C324.710663,207.690781 328.704224,209.062775 331.882538,211.090378 
	C335.716125,213.535950 334.154816,217.745865 333.219849,221.653442 
z"/>
<path fill="#ADD4EB" opacity="1.000000" stroke="none" 
	d="
M206.039673,422.032410 
	C205.958664,429.327271 204.116013,430.837585 198.363861,427.623871 
	C207.806610,428.496490 202.242233,421.187897 205.360016,417.163574 
	C205.671021,419.193115 205.855148,420.394775 206.039673,422.032410 
z"/>
<path fill="#9DC5DE" opacity="1.000000" stroke="none" 
	d="
M177.032425,404.843048 
	C178.536392,406.302612 180.039001,407.304260 181.990997,408.605469 
	C179.732620,408.733643 177.670151,408.850739 175.385712,408.980408 
	C175.385712,405.358032 175.385712,401.760864 175.385712,398.163666 
	C175.801926,398.125092 176.218124,398.086487 176.634338,398.047882 
	C176.766571,400.160309 176.898819,402.272705 177.032425,404.843048 
z"/>
<path fill="#ADD4EB" opacity="1.000000" stroke="none" 
	d="
M331.930237,404.007050 
	C331.930481,402.096191 331.930481,400.640961 331.930481,398.780212 
	C333.893738,400.769196 335.496094,402.392548 337.020477,403.936920 
	C335.978241,404.978210 334.242798,406.712036 332.208679,408.744324 
	C332.123779,407.440308 332.026886,405.951508 331.930237,404.007050 
z"/>
<path fill="#098EC1" opacity="1.000000" stroke="none" 
	d="
M267.998810,222.950027 
	C266.905640,221.202774 266.213074,219.464508 265.520477,217.726257 
	C265.972168,217.461456 266.423828,217.196655 266.875519,216.931870 
	C268.583252,218.492950 270.291016,220.054031 272.832916,222.377625 
	C270.690735,222.658539 269.545074,222.808777 267.998810,222.950027 
z"/>
<path fill="#89A8BF" opacity="1.000000" stroke="none"
	d="
M314.651001,215.341370
	C312.213226,215.857010 309.312653,216.560623 306.389221,216.673584
	C304.147705,216.760193 301.877411,216.101532 299.300171,215.550034
	C304.046417,215.308868 309.112366,215.292023 314.651001,215.341370
z"/>
<path fill="#098EC1" opacity="1.000000" stroke="none"
	d="
M325.329651,424.432495
	C325.826111,423.461243 326.322571,422.489960 327.042511,421.081451
	C328.105286,423.098419 329.049744,424.890900 330.403412,427.459961
	C328.613007,427.624298 327.342743,427.740875 325.545258,427.467407
	C325.121918,426.195740 325.225800,425.314117 325.329651,424.432495
z"/>
<path fill="#098EC1" opacity="1.000000" stroke="none"
	d="
M224.975494,288.023468
	C221.767563,285.197906 218.559631,282.372375 215.276917,279.171631
	C215.202133,278.796448 215.353348,278.643036 215.673920,278.756775
	C219.089554,281.842804 222.184616,284.815125 225.203323,287.846008
	C225.126968,287.904633 224.975494,288.023468 224.975494,288.023468
z"/>
<path fill="#ADD4EB" opacity="1.000000" stroke="none"
	d="
M264.990234,448.847107
	C264.824463,448.907043 264.658691,448.967010 264.259064,448.470703
	C264.028442,444.693024 264.031708,441.471649 264.034973,438.250305
	C265.527740,439.691956 267.020508,441.133606 268.583984,442.897278
	C268.543396,443.359131 268.432068,443.498962 267.832642,443.773102
	C266.657562,443.555176 265.970581,443.202911 264.990234,442.700256
	C264.990234,444.941742 264.990234,446.894409 264.990234,448.847107
z"/>
<path fill="#ADD4EB" opacity="1.000000" stroke="none"
	d="
M299.434143,388.764709
	C298.464233,386.420990 297.913757,383.973175 297.151733,381.209717
	C297.512054,379.848236 298.083923,378.802368 298.655823,377.756531
	C299.055054,377.893402 299.454315,378.030273 299.853546,378.167145
	C299.853546,381.664978 299.853546,385.162781 299.434143,388.764709
z"/>
<path fill="#9DC5DE" opacity="1.000000" stroke="none"
	d="
M265.237518,449.011383
	C264.990234,446.894409 264.990234,444.941742 264.990234,442.700256
	C265.970581,443.202911 266.657562,443.555176 267.652893,443.971985
	C267.997925,444.482697 268.034668,444.928864 268.043945,445.598389
	C267.172577,446.939728 266.328674,448.057678 265.237518,449.011383
z"/>
<path fill="#89A8BF" opacity="1.000000" stroke="none"
	d="
M329.279083,225.654282
	C328.807556,224.814774 328.661652,223.929886 328.423523,222.691864
	C328.912415,220.533218 329.493500,218.727707 330.074585,216.922180
	C330.786407,218.561447 331.498291,220.200714 332.562561,221.891953
	C331.811523,223.165588 330.708099,224.387253 329.279083,225.654282
z"/>
<path fill="#098EC1" opacity="1.000000" stroke="none"
	d="
M215.126328,278.872986
	C213.130859,277.160156 211.211197,275.370819 209.207077,273.210266
	C209.122604,272.839050 209.233917,272.691925 209.570557,272.791931
	C211.722580,274.808960 213.537964,276.726013 215.353348,278.643036
	C215.353348,278.643036 215.202133,278.796448 215.126328,278.872986
z"/>
<path fill="#89A8BF" opacity="1.000000" stroke="none"
	d="
M297.592102,214.803619
	C295.270386,214.618042 292.697296,214.163528 290.060547,213.365021
	C292.444855,213.525604 294.892822,214.030136 297.592102,214.803619
z"/>
<path fill="#9DC5DE" opacity="1.000000" stroke="none"
	d="
M263.687286,438.444092
	C264.031708,441.471649 264.028442,444.693024 264.021729,448.354065
	C263.792053,445.408447 263.565826,442.023132 263.687286,438.444092
z"/>
<path fill="#89A8BF" opacity="1.000000" stroke="none"
	d="
M288.845703,211.722092
	C287.641022,210.951004 286.317810,209.885056 284.973389,208.459991
	C286.210541,209.209641 287.468811,210.318436 288.845703,211.722092
z"/>
<path fill="#ADD4EB" opacity="1.000000" stroke="none"
	d="
M324.965454,424.283051
	C325.225800,425.314117 325.121918,426.195740 325.168213,427.389374
	C324.640656,428.043396 323.962982,428.385406 321.905396,429.423828
	C323.191498,426.900024 323.896362,425.516815 324.965454,424.283051
z"/>

<path fill="#098EC1" opacity="1.000000" stroke="none"
	d="
M228.988144,292.012939
	C228.709961,291.837219 228.431793,291.661499 228.075089,291.244934
	C227.996567,291.004089 228.103348,290.897888 228.341293,290.993042
	C228.813995,291.301239 229.023407,291.536865 229.152557,291.849426
	C229.097656,291.903839 228.988144,292.012939 228.988144,292.012939
z"/>
<path fill="#098EC1" opacity="1.000000" stroke="none"
	d="
M229.977463,293.024078
	C229.702240,292.845825 229.427017,292.667572 229.069977,292.251129
	C228.988144,292.012939 229.097656,291.903839 229.336197,291.998688
	C229.810364,292.305817 230.019974,292.541260 230.146912,292.855774
	C230.090240,292.911713 229.977463,293.024078 229.977463,293.024078
z"/>


<path fill="#89A8BF" opacity="1.000000" stroke="none"
	d="
M254.768555,171.103058
	C254.969299,171.383301 254.800201,171.658615 254.264267,171.933350
	C254.195312,171.734909 254.362396,171.456696 254.768555,171.103058
z"/>
<path fill="#89A8BF" opacity="1.000000" stroke="none"
	d="
M316.795959,214.592529
	C316.880310,214.874374 316.707275,215.017868 316.283752,215.064117
	C316.176178,214.787506 316.344635,214.616592 316.795959,214.592529
z"/>
<path fill="#89A8BF" opacity="1.000000" stroke="none"
	d="
M318.767029,213.091400
	C318.832031,213.290512 318.652222,213.565445 318.236267,213.928986
	C318.174194,213.734131 318.348206,213.450668 318.767029,213.091400
z"/>
<path fill="#89A8BF" opacity="1.000000" stroke="none"
	d="
M319.772980,212.116043
	C319.962341,212.397369 319.786987,212.667404 319.251617,212.934189
	C319.188202,212.736298 319.360413,212.460907 319.772980,212.116043
z"/>

	<path fill="#02AFDC" opacity="1.000000" stroke="none"
		  d="
    M234.856354,291.040161
    C235.150070,291.234467 235.443787,291.428802 235.944733,292.080627
    C236.343063,292.807129 236.601028,292.970673 236.925827,293.028839
    C236.925827,293.028839 236.980881,293.019073 236.974670,293.046387
    C237.189713,297.201019 234.605560,295.092621 232.549454,294.816772
    C232.000977,294.503571 231.782318,294.291870 231.377625,293.945251
    C231.011551,293.547913 230.800446,293.314606 230.385071,292.950867
    C230.019974,292.541260 229.810364,292.305817 229.391113,291.944275
    C229.023407,291.536865 228.813995,291.301239 228.394775,290.940002
    C228.028168,290.531799 227.818207,290.296600 227.394943,289.939026
    C227.026062,289.532806 226.813370,289.300537 226.386810,288.947174
    C226.018524,288.555298 225.818192,288.325806 225.440460,287.949158
    C222.184616,284.815125 219.089554,281.842804 215.673920,278.756775
    C213.537964,276.726013 211.722580,274.808960 209.570557,272.791931
    C209.031738,272.482269 208.826309,272.275818 208.461838,271.920135
    C205.499939,268.192383 202.917160,264.407776 199.820541,261.104889
    C197.102142,258.205383 198.086838,256.303650 200.407211,253.971603
    C205.478363,248.874969 213.947830,248.979218 220.150375,252.747360
    C224.864594,255.611359 229.303802,258.851501 235.118652,256.994995
    C236.692459,256.492523 238.680939,254.964935 239.076828,253.522888
    C240.380814,248.773132 241.733749,243.858307 241.814087,238.986206
    C242.016678,226.699066 241.494781,214.401154 241.346268,202.106537
    C241.284225,196.970825 246.043671,192.062912 250.973846,191.957428
    C257.466125,191.818527 261.807220,195.649857 261.992340,202.067581
    C262.179443,208.554398 262.009583,215.050842 262.050629,221.542725
    C262.086273,227.176620 262.899139,227.455704 268.385254,227.237045
    C271.250244,227.122864 275.136688,227.896423 276.880402,229.805099
    C280.015808,233.237061 282.959869,234.580383 287.306305,233.129837
    C287.908661,232.928833 288.726379,233.373184 289.034393,233.435638
    C285.606140,236.486084 282.245209,239.476654 278.311188,242.977158
    C277.862976,237.151276 278.324005,230.469452 270.496826,230.169281
    C264.554504,229.941391 261.716156,233.871948 261.734924,240.223557
    C261.228088,240.064484 260.721222,239.905411 260.214386,239.746338
    C259.798462,238.372269 258.998169,236.989578 259.028839,235.625565
    C259.232086,226.584549 259.843536,217.546906 259.819489,208.509506
    C259.810333,205.075989 259.084473,201.325195 257.514923,198.332870
    C256.549194,196.491730 252.906906,194.393585 251.285492,194.922363
    C248.405136,195.861679 244.368866,196.206375 244.632278,201.842194
    C245.126862,212.423950 244.104340,223.067001 244.110046,233.684372
    C244.114365,241.694748 244.177597,249.632111 240.986816,257.574341
    C240.979782,257.964508 240.996048,257.995850 240.588531,257.990417
    C238.758377,258.359833 237.015488,258.337280 235.969788,259.179901
    C231.944489,262.423645 228.175400,260.606415 224.409286,258.922272
    C222.610031,258.117676 221.078171,256.698059 219.263474,255.948410
    C214.436935,253.954620 209.444000,252.687897 204.506119,255.450912
    C203.485352,256.022095 200.137390,257.287170 204.010101,258.994965
    C204.010101,258.994965 203.999390,259.000000 204.092255,259.225159
    C204.377670,259.739136 204.642166,259.926239 204.978622,260.011597
    C204.978622,260.011597 205.000610,260.000000 205.033081,260.325195
    C205.698380,261.107788 206.331207,261.565155 206.964035,262.022522
    C206.964035,262.022522 207.000000,261.999939 207.026093,262.358673
    C209.023682,264.485138 210.995193,266.252899 212.966690,268.020630
    C212.966690,268.020630 213.002121,268.000458 213.087158,268.242554
    C213.366562,268.765259 213.630295,268.942841 213.963440,269.017365
    C213.963440,269.017365 213.999725,268.998260 214.027283,269.369446
    C215.350342,270.837524 216.645859,271.934418 217.941376,273.031342
    C217.941376,273.031342 217.996689,273.001556 217.987457,273.389526
    C221.470581,277.263184 224.962936,280.748810 228.455307,284.234436
    C228.455307,284.234436 228.657761,284.345917 228.595917,284.774353
    C230.001816,286.479095 231.469559,287.755371 232.937302,289.031647
    C233.216888,289.224701 233.496490,289.417786 233.947327,290.069641
    C234.289520,290.807098 234.535446,290.977661 234.856354,291.040161
    z"/>


</svg>