<svg version="1.1" id="Layer_1" xmlns="http://www.w3.org/2000/svg" xmlns:xlink="http://www.w3.org/1999/xlink" x="0px" y="0px"
	 width="100%" viewBox="0 0 1396 1136" enable-background="new 0 0 1396 1136" xml:space="preserve">
<path fill="#000000" opacity="1.000000" stroke="none" 
	d="
M711.000000,1137.000000 
	C474.000000,1137.000000 237.500000,1137.000000 1.000000,1137.000000 
	C1.000000,758.333313 1.000000,379.666656 1.000000,1.000000 
	C466.333344,1.000000 931.666687,1.000000 1397.000000,1.000000 
	C1397.000000,379.666656 1397.000000,758.333313 1397.000000,1137.000000 
	C1168.500000,1137.000000 940.000000,1137.000000 711.000000,1137.000000 
M1196.266602,734.541382 
	C1196.068848,733.428833 1195.871094,732.316284 1196.547852,731.554749 
	C1203.680908,730.076233 1205.978882,735.826477 1209.445557,740.003906 
	C1210.730469,741.552307 1212.680664,742.548767 1214.446777,743.887512 
	C1216.150635,737.589417 1217.826172,732.726074 1218.718994,727.723022 
	C1219.623657,722.653625 1220.799805,717.159363 1214.624756,713.808228 
	C1217.160400,711.643250 1220.648438,709.759277 1217.059570,706.247192 
	C1214.916870,704.150269 1212.327148,702.510071 1208.818481,699.799377 
	C1210.837769,698.587280 1212.898315,697.350403 1214.632812,696.309326 
	C1208.399780,690.694580 1198.988037,694.387512 1194.093872,686.937439 
	C1201.502441,689.634766 1208.360107,691.536926 1212.013428,682.760559 
	C1210.050537,681.944885 1208.083008,681.127136 1206.115479,680.309448 
	C1207.608765,679.071228 1209.439575,678.065857 1210.499512,676.528870 
	C1211.548340,675.008423 1212.394775,672.901489 1212.242920,671.145752 
	C1212.127808,669.815735 1210.304810,668.633484 1209.241699,667.385437 
	C1209.716187,667.381531 1210.190674,667.377563 1210.665161,667.373657 
	C1210.665161,663.360413 1210.665161,659.347168 1211.084961,654.784058 
	C1211.209595,654.589966 1211.334106,654.395935 1212.204712,654.155396 
	C1215.187500,655.135925 1217.171143,654.318970 1218.486084,651.277954 
	C1222.469238,642.065857 1219.057495,633.552979 1209.747559,629.916809 
	C1208.664795,629.493958 1207.578003,629.080505 1206.485962,628.682556 
	C1199.584595,626.167908 1193.331543,622.826416 1188.256104,617.195679 
	C1186.282593,615.006165 1182.750977,614.221008 1179.798218,612.730103 
	C1181.380493,609.223999 1179.487915,606.455200 1176.122803,604.226501 
	C1172.795532,602.022949 1169.334839,600.023560 1169.756348,595.034546 
	C1169.831055,594.150208 1167.660278,592.110840 1166.913330,592.283081 
	C1162.860107,593.217651 1159.317871,591.718689 1155.520874,591.044800 
	C1153.453979,590.677917 1150.909058,593.003845 1148.579590,594.115234 
	C1148.706299,593.613342 1148.833008,593.111511 1148.959717,592.609619 
	C1145.697632,591.226746 1142.502563,589.647766 1139.158081,588.506470 
	C1134.014648,586.751282 1128.676147,585.533813 1123.624512,583.564514 
	C1122.180542,583.001648 1120.363403,580.452393 1120.582275,579.120422 
	C1121.236084,575.141296 1119.100708,573.407715 1116.392700,571.456909 
	C1114.129028,569.826111 1112.235352,567.681824 1110.194824,565.780884 
	C1111.177368,564.492737 1112.095459,563.534607 1112.727661,562.415039 
	C1114.764404,558.807861 1113.652954,552.674255 1110.771606,549.967773 
	C1107.130249,546.547363 1104.019043,548.327515 1100.523682,550.382690 
	C1095.847412,553.132202 1091.075317,555.938660 1085.990356,557.696411 
	C1082.581299,558.874756 1077.873779,559.583069 1075.011963,558.085205 
	C1072.420288,556.728699 1070.098999,552.049500 1070.204224,548.921082 
	C1070.435547,542.052551 1072.070435,535.192688 1073.565186,528.424866 
	C1074.142578,525.810852 1075.893433,523.455933 1076.829956,521.551636 
	C1078.298462,516.764771 1079.619141,512.459473 1080.797485,508.618530 
	C1082.596924,509.786652 1084.757935,512.138367 1085.853760,511.717377 
	C1088.782837,510.592285 1093.124390,508.628082 1093.548950,506.367188 
	C1094.704834,500.212616 1098.781250,497.734894 1103.524048,495.579041 
	C1106.688599,494.140503 1108.036499,491.913330 1108.030151,488.566010 
	C1108.021240,483.900909 1108.133545,479.235687 1108.149658,474.570343 
	C1108.193848,461.739044 1099.412720,450.269928 1087.104126,446.208008 
	C1090.066650,440.837738 1093.083008,435.496216 1095.977417,430.089447 
	C1099.096069,424.263824 1099.945679,418.164490 1097.527344,411.875183 
	C1093.299805,400.880493 1081.850830,394.750610 1070.139771,397.119720 
	C1058.992920,399.374695 1051.374146,409.707764 1051.973511,421.632660 
	C1052.049805,423.152802 1051.676025,424.695557 1050.915405,426.729156 
	C1049.689087,425.622223 1048.412354,424.565643 1047.244751,423.399933 
	C1041.347656,417.511871 1041.366577,417.510132 1046.926758,411.488831 
	C1049.831055,408.343567 1052.204468,404.103760 1048.934204,400.875793 
	C1043.886963,395.893860 1038.141602,390.988617 1031.758179,388.156555 
	C1024.400391,384.892181 1016.027405,383.916077 1007.993530,381.920959 
	C1003.347229,392.853485 998.847961,403.440063 994.237183,414.289124 
	C973.281738,397.292114 952.864380,380.724426 932.437683,364.168335 
	C927.350342,360.044983 924.467041,360.669708 921.804199,366.847504 
	C920.928955,368.878021 920.429504,371.445099 920.815918,373.574951 
	C922.004761,380.128113 920.185242,385.484314 916.312500,390.790375 
	C914.444275,393.350037 913.807251,397.057068 913.346313,400.347351 
	C912.084900,409.351562 912.370789,418.341248 902.953857,424.498505 
	C898.519836,427.397614 896.739746,434.233765 893.477295,439.098328 
	C891.871765,441.492279 890.008423,444.499329 887.588440,445.380981 
	C883.749939,446.779449 881.798279,449.129150 879.804382,452.385406 
	C878.767517,454.078552 874.569397,455.973877 873.824341,455.351929 
	C869.761597,451.960724 867.960571,454.422241 865.926575,457.435028 
	C861.018494,464.705048 856.062012,471.942352 850.893555,479.532990 
	C846.749634,476.628326 842.778503,474.202789 839.233582,471.263214 
	C835.387939,468.074219 833.021118,469.002960 830.408875,472.853210 
	C824.902039,480.969879 819.354675,488.951141 818.306030,499.153931 
	C818.133850,500.829010 816.398743,502.364990 815.321960,503.920990 
	C813.203796,506.982025 809.811584,509.758606 809.122559,513.101440 
	C806.899475,523.886292 801.635925,532.900635 794.798279,541.157166 
	C793.859558,542.290649 791.387512,543.161560 790.025452,542.768250 
	C783.015015,540.744202 776.115967,538.322083 769.229736,535.892334 
	C768.169495,535.518250 766.822937,534.541260 766.547607,533.575500 
	C763.755127,523.780701 758.298828,517.009766 747.757874,514.741516 
	C744.225769,513.981506 741.952820,514.526123 741.049011,517.652771 
	C738.914734,525.035767 737.537781,532.644531 735.256836,539.976074 
	C733.673645,545.065002 732.225342,550.988220 728.686462,554.482117 
	C723.924255,559.183716 720.531677,563.478088 720.885071,570.405640 
	C720.964294,571.957947 719.324036,573.815613 718.086853,575.180542 
	C711.963379,581.936096 703.998718,586.591187 702.503113,597.522400 
	C701.004883,608.472961 694.685852,618.106750 687.005737,626.547852 
	C675.316101,639.395752 663.486389,652.050964 656.714233,668.660522 
	C652.256409,679.594116 649.756531,679.209778 660.767761,686.326782 
	C660.875732,686.396545 660.883606,686.621277 661.049255,687.083496 
	C657.533630,690.198486 653.918640,693.401489 649.866272,696.126160 
	C644.303040,690.079041 637.577759,686.697571 629.199280,687.311157 
	C616.712830,688.225464 604.185547,700.002625 607.941650,717.782471 
	C604.326172,719.825500 600.462036,721.534912 597.158997,723.997131 
	C593.135132,726.996765 590.302246,725.511475 587.500427,722.510437 
	C584.248169,719.027039 578.432495,718.198669 574.354614,720.704407 
	C570.549255,723.042725 569.898621,726.829224 571.758057,732.101013 
	C572.259583,733.522827 571.804443,736.435303 570.816589,737.019165 
	C567.463379,739.000916 564.651123,743.645447 559.612305,740.364319 
	C559.056396,740.002380 557.964783,740.261658 557.186646,740.472656 
	C546.895142,743.262878 536.615417,746.096191 525.335571,749.192322 
	C522.069031,746.410767 517.205322,743.103760 513.421997,738.838501 
	C508.570923,733.369568 504.223724,733.700684 500.915161,740.241516 
	C499.708496,742.627014 497.321716,745.755859 495.137695,746.049622 
	C489.131439,746.857300 485.146881,749.981750 481.436462,754.268982 
	C480.119324,755.790894 478.012421,757.440247 476.172058,757.557739 
	C468.302551,758.059570 461.341614,755.232056 456.336731,749.226318 
	C453.518494,745.844360 450.695038,744.100891 446.357666,743.720337 
	C444.254730,743.535950 442.012024,741.912781 440.353668,740.377869 
	C437.634216,737.861084 435.264374,734.947449 432.895844,732.078308 
	C431.614044,730.525635 429.471466,728.511230 429.728699,727.062317 
	C430.871613,720.625183 428.867249,716.037170 422.908081,713.250977 
	C428.719452,707.122192 428.589935,704.228333 422.461578,698.906494 
	C414.365662,705.757568 405.952911,712.321350 398.175323,719.567017 
	C378.303192,738.080078 356.514313,753.535400 331.321869,764.071533 
	C326.993561,765.881775 323.201965,769.217957 319.568390,772.324036 
	C318.163757,773.524780 316.844818,776.332520 317.279907,777.915161 
	C319.068939,784.422485 316.071106,787.589111 310.508148,789.620300 
	C308.644501,790.300720 306.874969,791.266357 305.117371,792.204590 
	C299.839233,795.021912 295.932617,798.471924 296.746857,805.461304 
	C296.982361,807.482971 295.183289,811.087280 293.461029,811.753601 
	C286.736206,814.355347 279.644135,815.993530 272.744202,818.166443 
	C270.932648,818.736938 268.751526,819.527771 267.726227,820.935608 
	C264.828186,824.914795 261.825928,829.031128 260.092682,833.562988 
	C259.108337,836.136536 258.190613,836.838196 255.824631,837.149414 
	C245.209213,838.546082 235.064651,841.407959 225.556747,846.545837 
	C222.465591,848.216370 218.838562,848.947876 215.402344,849.916260 
	C207.935028,852.020691 200.215149,853.445190 193.032761,856.256897 
	C189.199951,857.757324 184.286560,860.073547 185.112366,866.315063 
	C186.297287,866.399292 187.267731,866.523926 188.238846,866.529358 
	C266.065125,866.965088 343.891418,867.397217 421.717957,867.779541 
	C423.322723,867.787415 425.432739,867.747986 426.443939,866.805054 
	C429.679993,863.787476 433.371552,864.126343 437.217804,864.390930 
	C448.492126,865.166565 459.761566,866.931213 470.902557,867.702637 
	C497.457397,869.541260 524.193176,868.780273 550.856201,869.040283 
	C722.333252,870.712830 893.810486,872.359802 1065.287231,874.054138 
	C1125.943237,874.653442 1186.598145,875.372925 1247.253784,876.008484 
	C1255.802246,876.098022 1264.352539,876.020813 1273.345093,876.020813 
	C1272.096436,871.050110 1271.187134,866.826965 1269.970337,862.694336 
	C1265.285889,846.784729 1260.697266,830.842285 1255.662964,815.042725 
	C1253.600586,808.570312 1252.195801,805.972900 1244.113159,808.031494 
	C1242.140503,808.533936 1239.787354,808.386230 1237.800537,807.840576 
	C1230.006592,805.700439 1222.327515,803.142334 1214.532593,801.006104 
	C1206.904907,798.915710 1202.536133,802.867920 1203.114014,811.189026 
	C1202.949951,811.457703 1202.785889,811.726440 1201.812988,811.886658 
	C1196.725220,811.398926 1191.637573,810.911255 1185.409424,810.314209 
	C1185.613281,808.030701 1185.926147,804.525452 1186.264404,800.736389 
	C1193.155396,803.398254 1193.050171,803.260315 1198.235840,799.306458 
	C1199.945435,798.002930 1202.300415,797.157288 1204.453247,796.909424 
	C1208.237061,796.473877 1210.934692,794.999512 1212.809570,791.597351 
	C1217.407227,783.254089 1212.890137,770.390625 1206.170410,765.302002 
	C1204.114990,763.745605 1201.856567,762.457642 1199.774902,761.101379 
	C1201.177124,754.810059 1199.222412,752.781738 1192.265991,752.042358 
	C1192.697021,751.318115 1193.128052,750.593872 1194.382202,749.831665 
	C1201.447632,748.000732 1202.142212,746.168579 1198.277832,739.712830 
	C1197.607910,738.593750 1197.087402,737.385254 1196.266602,734.541382 
M1332.537476,643.235901 
	C1333.415894,644.192932 1334.159668,645.775757 1335.195923,645.998779 
	C1339.660156,646.959412 1343.234741,644.716492 1345.200073,641.125305 
	C1350.390259,631.641174 1355.077515,621.881775 1359.965088,612.231995 
	C1359.599487,611.840820 1359.233887,611.449585 1358.868286,611.058411 
	C1356.385010,611.976929 1352.943726,612.175232 1351.605713,613.954895 
	C1348.179443,618.511841 1345.759766,623.815186 1342.787964,628.729553 
	C1341.646484,630.617188 1340.116699,632.273376 1338.732422,634.009949 
	C1337.434814,635.637695 1336.095581,637.232422 1334.774780,638.841736 
	C1335.134277,639.152100 1335.493652,639.462524 1335.853149,639.772888 
	C1334.902954,639.970459 1333.952881,640.168030 1332.228027,640.843567 
	C1331.852295,640.629333 1331.144897,640.406799 1331.150024,640.202087 
	C1331.245361,636.377380 1331.066040,632.490906 1331.728882,628.756714 
	C1332.099487,626.668335 1333.491455,624.333923 1335.140991,622.994324 
	C1338.023926,620.653137 1339.460327,618.226440 1338.450317,614.222290 
	C1327.182617,615.743835 1316.191406,617.427673 1305.146484,618.608276 
	C1301.415649,619.007141 1299.291260,620.518555 1298.275391,623.881470 
	C1297.336914,626.987976 1295.650635,628.602966 1292.176636,629.390869 
	C1286.159912,630.755310 1282.945190,635.197937 1283.504150,639.853577 
	C1285.782837,639.853577 1288.093750,639.673157 1290.351318,639.941467 
	C1291.269653,640.050537 1292.712036,641.068115 1292.787354,641.790100 
	C1292.924194,643.101318 1292.510864,644.683716 1291.801025,645.825745 
	C1290.246582,648.326233 1288.362793,650.622070 1286.613525,653.001465 
	C1286.961304,653.338928 1287.309204,653.676331 1287.657104,654.013794 
	C1283.470703,655.037720 1276.880737,647.712402 1275.280273,657.452698 
	C1276.161255,658.567139 1277.157959,659.828125 1278.404175,661.404846 
	C1275.278931,663.769897 1272.726685,665.864990 1273.661499,670.498718 
	C1273.970337,672.029968 1272.553833,676.515320 1268.388062,677.107910 
	C1266.918701,677.316833 1265.490967,679.171570 1264.422485,680.565002 
	C1262.168945,683.503845 1260.165039,686.634155 1257.777832,690.093079 
	C1257.769409,690.082275 1258.398926,690.891174 1259.333740,692.092529 
	C1257.695679,693.302185 1256.245972,694.372742 1254.578247,695.604309 
	C1256.240479,696.677124 1257.294312,697.357239 1257.350708,697.393616 
	C1256.030151,702.379517 1254.841309,706.701294 1253.744019,711.046204 
	C1251.553101,719.720825 1250.234497,728.726868 1247.025024,737.002563 
	C1243.667358,745.660645 1245.830200,753.068237 1249.026855,760.769836 
	C1250.095825,763.345276 1250.914673,766.045227 1252.201782,768.502930 
	C1253.206177,770.420837 1254.518799,773.149353 1256.134155,773.501709 
	C1257.744141,773.852844 1259.958252,771.781067 1261.795044,770.597168 
	C1262.706055,770.010010 1263.229248,768.610474 1264.163208,768.309875 
	C1266.742676,767.480042 1269.446289,767.035461 1271.970703,766.467712 
	C1271.401733,763.352905 1271.002930,761.170227 1270.610596,759.022278 
	C1281.893433,756.650513 1283.098022,754.609680 1281.723145,740.920959 
	C1280.287231,740.920959 1278.833862,740.920959 1277.149658,740.920959 
	C1275.840942,744.683960 1274.534546,748.440430 1273.228149,752.196838 
	C1272.782715,752.094238 1272.337402,751.991577 1271.892090,751.888977 
	C1272.267578,746.691040 1271.992310,741.338989 1273.177002,736.332581 
	C1274.805908,729.449463 1276.990479,722.573608 1279.957153,716.166992 
	C1282.829956,709.962830 1289.343262,711.915344 1295.528076,710.619812 
	C1290.195923,715.761536 1286.643433,724.879761 1287.695068,731.410034 
	C1289.967285,729.626831 1292.361206,728.656006 1293.218628,726.924377 
	C1297.973633,717.322815 1301.001953,706.867920 1307.740112,698.236023 
	C1308.524536,697.231079 1309.066528,694.678528 1308.541260,694.232422 
	C1305.404541,691.568298 1307.548584,688.992310 1308.390869,686.526245 
	C1309.456543,683.406006 1311.095703,680.482788 1312.179443,677.367432 
	C1316.676880,664.440308 1323.526978,652.794312 1331.391846,641.693787 
	C1331.437988,641.628662 1332.313843,642.151550 1332.537476,643.235901 
z"/>
<path fill="#F2F2F2" opacity="1.000000" stroke="none" 
	d="
M1192.148071,752.887512 
	C1199.222412,752.781738 1201.177124,754.810059 1199.774902,761.101379 
	C1201.856567,762.457642 1204.114990,763.745605 1206.170410,765.302002 
	C1212.890137,770.390625 1217.407227,783.254089 1212.809570,791.597351 
	C1210.934692,794.999512 1208.237061,796.473877 1204.453247,796.909424 
	C1202.300415,797.157288 1199.945435,798.002930 1198.235840,799.306458 
	C1193.050171,803.260315 1193.155396,803.398254 1186.264404,800.736389 
	C1185.926147,804.525452 1185.613281,808.030701 1185.409424,810.314209 
	C1191.637573,810.911255 1196.725220,811.398926 1202.514771,812.197632 
	C1203.389282,811.831421 1203.562012,811.154358 1203.734863,810.477295 
	C1202.536133,802.867920 1206.904907,798.915710 1214.532593,801.006104 
	C1222.327515,803.142334 1230.006592,805.700439 1237.800537,807.840576 
	C1239.787354,808.386230 1242.140503,808.533936 1244.113159,808.031494 
	C1252.195801,805.972900 1253.600586,808.570312 1255.662964,815.042725 
	C1260.697266,830.842285 1265.285889,846.784729 1269.970337,862.694336 
	C1271.187134,866.826965 1272.096436,871.050110 1273.345093,876.020813 
	C1264.352539,876.020813 1255.802246,876.098022 1247.253784,876.008484 
	C1186.598145,875.372925 1125.943237,874.653442 1065.287231,874.054138 
	C893.810486,872.359802 722.333252,870.712830 550.856201,869.040283 
	C524.193176,868.780273 497.457397,869.541260 470.902557,867.702637 
	C459.761566,866.931213 448.492126,865.166565 437.217804,864.390930 
	C433.371552,864.126343 429.679993,863.787476 426.443939,866.805054 
	C425.432739,867.747986 423.322723,867.787415 421.717957,867.779541 
	C343.891418,867.397217 266.065125,866.965088 188.238846,866.529358 
	C187.267731,866.523926 186.297287,866.399292 185.112366,866.315063 
	C184.286560,860.073547 189.199951,857.757324 193.032761,856.256897 
	C200.215149,853.445190 207.935028,852.020691 215.402344,849.916260 
	C218.838562,848.947876 222.465591,848.216370 225.556747,846.545837 
	C235.064651,841.407959 245.209213,838.546082 255.824631,837.149414 
	C258.190613,836.838196 259.108337,836.136536 260.092682,833.562988 
	C261.825928,829.031128 264.828186,824.914795 267.726227,820.935608 
	C268.751526,819.527771 270.932648,818.736938 272.744202,818.166443 
	C279.644135,815.993530 286.736206,814.355347 293.461029,811.753601 
	C295.183289,811.087280 296.982361,807.482971 296.746857,805.461304 
	C295.932617,798.471924 299.839233,795.021912 305.117371,792.204590 
	C306.874969,791.266357 308.644501,790.300720 310.508148,789.620300 
	C316.071106,787.589111 319.068939,784.422485 317.279907,777.915161 
	C316.844818,776.332520 318.163757,773.524780 319.568390,772.324036 
	C323.201965,769.217957 326.993561,765.881775 331.321869,764.071533 
	C356.514313,753.535400 378.303192,738.080078 398.175323,719.567017 
	C405.952911,712.321350 414.365662,705.757568 422.461578,698.906494 
	C428.589935,704.228333 428.719452,707.122192 422.908081,713.250977 
	C428.867249,716.037170 430.871613,720.625183 429.728699,727.062317 
	C429.471466,728.511230 431.614044,730.525635 432.895844,732.078308 
	C435.264374,734.947449 437.634216,737.861084 440.353668,740.377869 
	C442.012024,741.912781 444.254730,743.535950 446.357666,743.720337 
	C450.695038,744.100891 453.518494,745.844360 456.336731,749.226318 
	C461.341614,755.232056 468.302551,758.059570 476.172058,757.557739 
	C478.012421,757.440247 480.119324,755.790894 481.436462,754.268982 
	C485.146881,749.981750 489.131439,746.857300 495.137695,746.049622 
	C497.321716,745.755859 499.708496,742.627014 500.915161,740.241516 
	C504.223724,733.700684 508.570923,733.369568 513.421997,738.838501 
	C517.205322,743.103760 522.069031,746.410767 525.335571,749.192322 
	C536.615417,746.096191 546.895142,743.262878 557.186646,740.472656 
	C557.964783,740.261658 559.056396,740.002380 559.612305,740.364319 
	C564.651123,743.645447 567.463379,739.000916 570.816589,737.019165 
	C571.804443,736.435303 572.259583,733.522827 571.758057,732.101013 
	C569.898621,726.829224 570.549255,723.042725 574.354614,720.704407 
	C578.432495,718.198669 584.248169,719.027039 587.500427,722.510437 
	C590.302246,725.511475 593.135132,726.996765 597.158997,723.997131 
	C600.462036,721.534912 604.326172,719.825500 608.440125,717.889404 
	C609.499268,719.271912 610.059875,720.547485 610.237549,721.943909 
	C606.397461,724.051819 602.905212,725.980469 599.490295,728.037720 
	C591.434021,732.890930 589.654480,732.515015 583.018066,725.879150 
	C581.842896,724.704041 578.960938,724.732422 577.043396,725.107056 
	C576.461060,725.220764 575.817505,728.583130 576.323669,730.077637 
	C578.299927,735.912415 577.645691,739.133057 572.145996,741.999207 
	C567.997986,744.160828 564.354675,749.898743 558.492004,745.144470 
	C558.351562,745.030640 557.873718,745.294922 557.571167,745.424561 
	C548.026978,749.512390 536.737427,747.983398 527.908386,754.714355 
	C526.926208,755.463135 523.675720,754.309509 522.192871,753.134766 
	C516.972351,748.998840 512.064026,744.468994 506.656189,739.756531 
	C505.943268,741.367920 505.637970,743.165466 504.586029,744.213501 
	C502.117615,746.672668 499.574219,750.048584 496.544464,750.719299 
	C492.031799,751.718323 488.608093,753.404724 485.611694,756.802551 
	C483.800079,758.856934 481.548340,761.456421 479.145386,761.893860 
	C468.968262,763.746094 460.014404,760.455505 453.107391,752.913330 
	C450.628387,750.206299 448.258667,749.189453 444.861755,748.416809 
	C441.799286,747.720337 438.907623,745.438904 436.414795,743.303040 
	C433.862213,741.115845 432.243164,737.767822 429.569305,735.810852 
	C425.947906,733.160400 424.050415,730.320679 424.847198,725.743896 
	C425.335510,722.939209 425.152710,720.454163 422.245117,718.339294 
	C419.855377,716.601074 418.407013,713.568604 416.191498,710.648743 
	C416.149872,710.680298 414.982910,711.484619 413.905518,712.395020 
	C401.434631,722.932068 389.123657,733.665527 376.446320,743.947510 
	C371.205872,748.197754 365.391449,751.856201 359.479034,755.136658 
	C348.745697,761.092224 337.723145,766.524719 326.864777,772.257751 
	C323.147675,774.220398 321.367859,777.115662 322.229492,781.637451 
	C323.149414,786.464905 321.093689,790.006836 316.442230,792.004272 
	C313.697510,793.183044 311.111694,794.729309 308.376160,795.932434 
	C303.891907,797.904602 301.453247,800.627869 301.504547,806.137695 
	C301.533508,809.249207 299.518494,814.064636 297.073364,815.197876 
	C289.806671,818.565613 281.849365,820.426514 274.213531,823.027710 
	C272.610901,823.573792 270.756317,824.434204 269.843353,825.730957 
	C267.952942,828.415955 265.615479,831.375549 265.261841,834.430603 
	C264.521881,840.822632 260.193024,840.954651 255.527206,842.175415 
	C246.282394,844.594116 237.232239,847.766357 228.128967,850.711670 
	C224.737411,851.809021 221.489731,853.918274 218.059250,854.216064 
	C209.584961,854.951782 201.864182,857.631897 194.350327,861.431519 
	C195.675125,861.881470 196.926300,861.876038 198.177399,861.882263 
	C270.005981,862.238892 341.834534,862.612793 413.663330,862.917664 
	C418.499084,862.938171 423.594421,864.161194 427.819550,860.109802 
	C428.763336,859.204895 431.015381,859.456543 432.652527,859.516846 
	C442.643646,859.884644 452.649170,860.117249 462.611908,860.886719 
	C467.301208,861.248840 471.895966,863.486877 476.550568,863.546509 
	C526.209717,864.183228 575.872498,864.520325 625.533691,865.002380 
	C828.844360,866.976135 1032.154785,868.971863 1235.465332,870.956848 
	C1237.450806,870.976257 1239.436523,870.959290 1241.319580,870.959290 
	C1241.319580,866.972534 1241.319580,863.283752 1241.319580,859.031860 
	C1244.468506,863.552551 1247.246216,867.540222 1250.494019,872.202820 
	C1251.239746,862.773315 1251.789307,854.844604 1252.533081,846.934204 
	C1252.807373,844.016602 1253.295044,840.932617 1257.087280,841.665100 
	C1255.049194,833.188354 1253.075195,825.134705 1251.189331,817.060425 
	C1250.371216,813.557495 1249.247437,811.210388 1244.786011,812.853149 
	C1242.735229,813.608215 1240.053955,813.518127 1237.889893,812.942139 
	C1230.234131,810.904541 1222.705566,808.392212 1215.066406,806.286377 
	C1212.994385,805.715271 1210.702393,805.942322 1209.696533,805.878418 
	C1209.413452,809.431091 1209.069214,811.696228 1209.110474,813.954285 
	C1209.138184,815.467407 1209.417236,817.126038 1210.109863,818.442810 
	C1211.221313,820.555847 1212.768311,822.439758 1214.535156,825.007507 
	C1208.295898,823.913452 1202.540771,823.824402 1200.589722,817.033081 
	C1200.407471,816.398682 1198.984985,816.033447 1198.078979,815.708984 
	C1193.738525,814.153870 1190.168335,815.570496 1186.419678,818.012817 
	C1183.178101,820.124634 1179.254883,821.190125 1174.979980,822.993652 
	C1174.979980,819.981873 1174.490234,817.462219 1175.054932,817.198242 
	C1181.396851,814.233765 1180.115845,808.944458 1179.505859,803.814880 
	C1179.471191,803.522888 1179.296509,803.247620 1179.053101,802.618591 
	C1175.643555,800.832397 1171.951416,798.987488 1168.364502,796.956787 
	C1167.460205,796.444763 1166.910156,795.322021 1166.165771,794.508789 
	C1165.131348,793.378906 1164.245239,791.621765 1162.984131,791.278625 
	C1158.307739,790.006653 1156.745605,787.089233 1156.706421,782.466980 
	C1156.662476,777.286438 1156.016113,772.110962 1155.574097,766.156616 
	C1149.460083,771.819763 1146.486816,771.844116 1142.064819,766.152954 
	C1139.469604,762.812927 1136.565674,761.957458 1132.622925,762.063843 
	C1121.913452,762.352844 1113.300049,759.016418 1109.786621,747.702393 
	C1109.724976,747.504089 1109.260254,747.430969 1108.980225,747.302246 
	C1106.552612,748.958923 1104.128296,750.612732 1101.916992,752.121277 
	C1099.735352,750.562500 1098.075806,748.531067 1096.072632,748.101685 
	C1089.667603,746.728699 1083.055664,746.283142 1076.693848,744.765808 
	C1074.381592,744.214355 1071.938599,741.991028 1070.760498,739.863281 
	C1070.192505,738.837402 1072.250732,736.148743 1073.438843,734.433960 
	C1074.211548,733.318665 1075.559082,732.601624 1076.667725,731.690857 
	C1080.948608,737.893860 1087.958496,737.689575 1093.200684,737.248108 
	C1098.225464,736.824890 1101.630005,736.776367 1104.345215,740.996948 
	C1111.718506,735.323486 1112.929321,735.563721 1117.596069,743.337402 
	C1118.280762,744.477905 1118.825195,745.737671 1119.678467,746.733032 
	C1120.711914,747.938477 1122.005005,748.921570 1123.185669,750.000854 
	C1124.194336,748.415649 1125.423462,746.926514 1126.165283,745.224976 
	C1127.656250,741.805359 1128.881226,738.269897 1130.215942,734.782166 
	C1130.865967,734.934570 1131.515991,735.086914 1132.166016,735.239258 
	C1132.568481,738.137634 1133.525269,741.091858 1133.240112,743.920959 
	C1132.840942,747.881714 1134.503296,749.657043 1137.887817,750.925781 
	C1141.021362,752.100525 1143.984741,753.729248 1147.209106,755.245544 
	C1149.323730,754.852783 1151.920776,754.370422 1154.748169,754.131958 
	C1156.976807,758.591980 1158.975220,762.807922 1160.927002,767.394104 
	C1160.966797,770.263855 1161.053345,772.763489 1161.225586,775.687683 
	C1161.469727,785.373596 1161.477051,785.351685 1170.052368,788.200012 
	C1171.078369,788.540833 1172.667480,789.127441 1172.822632,789.851318 
	C1174.517700,797.764832 1181.945679,797.883362 1187.278809,801.784607 
	C1187.607300,793.624329 1179.540283,783.988342 1171.277222,781.168457 
	C1173.616211,780.375977 1175.567627,779.562439 1177.798584,779.000977 
	C1183.447021,784.818176 1191.364136,788.274597 1192.323486,797.053040 
	C1195.562988,795.278198 1198.253296,793.023926 1201.310669,792.282471 
	C1209.043823,790.406799 1210.649292,788.506592 1209.643677,781.427551 
	C1206.063721,780.756958 1202.768188,780.139648 1199.472534,779.522339 
	C1199.224609,778.850403 1198.976685,778.178467 1198.728760,777.506531 
	C1201.196289,775.625061 1203.663818,773.743530 1206.629395,771.482300 
	C1202.898315,769.898132 1199.118652,769.366760 1197.218750,767.192688 
	C1195.214478,764.899292 1195.003784,761.038330 1193.951782,757.677856 
	C1192.609863,757.803345 1190.795166,757.972961 1188.998779,757.817078 
	C1190.060791,755.956909 1191.104370,754.422180 1192.148071,752.887512 
M1258.940552,867.380859 
	C1260.540649,866.806824 1262.140625,866.232788 1263.157593,865.867981 
	C1261.290894,859.768555 1259.537598,854.039185 1257.784180,848.309814 
	C1256.548462,854.373657 1256.150635,860.287292 1256.005493,866.207092 
	C1255.991821,866.763611 1257.568726,867.359192 1258.940552,867.380859 
M1137.505005,757.557373 
	C1137.995239,757.585693 1138.485962,757.630615 1138.975464,757.621582 
	C1139.037354,757.620422 1139.093994,757.335754 1139.153198,757.182434 
	C1131.022583,751.427856 1129.923950,751.333435 1123.297974,756.997498 
	C1127.770874,757.183472 1132.243896,757.369507 1137.505005,757.557373 
z"/>
<path fill="#F4F4F4" opacity="1.000000" stroke="none" 
	d="
M1086.981689,446.887970 
	C1099.412720,450.269928 1108.193848,461.739044 1108.149658,474.570343 
	C1108.133545,479.235687 1108.021240,483.900909 1108.030151,488.566010 
	C1108.036499,491.913330 1106.688599,494.140503 1103.524048,495.579041 
	C1098.781250,497.734894 1094.704834,500.212616 1093.548950,506.367188 
	C1093.124390,508.628082 1088.782837,510.592285 1085.853760,511.717377 
	C1084.757935,512.138367 1082.596924,509.786652 1080.797485,508.618530 
	C1079.619141,512.459473 1078.298462,516.764771 1076.829956,521.551636 
	C1075.893433,523.455933 1074.142578,525.810852 1073.565186,528.424866 
	C1072.070435,535.192688 1070.435547,542.052551 1070.204224,548.921082 
	C1070.098999,552.049500 1072.420288,556.728699 1075.011963,558.085205 
	C1077.873779,559.583069 1082.581299,558.874756 1085.990356,557.696411 
	C1091.075317,555.938660 1095.847412,553.132202 1100.523682,550.382690 
	C1104.019043,548.327515 1107.130249,546.547363 1110.771606,549.967773 
	C1113.652954,552.674255 1114.764404,558.807861 1112.727661,562.415039 
	C1112.095459,563.534607 1111.177368,564.492737 1110.194824,565.780884 
	C1112.235352,567.681824 1114.129028,569.826111 1116.392700,571.456909 
	C1119.100708,573.407715 1121.236084,575.141296 1120.582275,579.120422 
	C1120.363403,580.452393 1122.180542,583.001648 1123.624512,583.564514 
	C1128.676147,585.533813 1134.014648,586.751282 1139.158081,588.506470 
	C1142.502563,589.647766 1145.697632,591.226746 1148.959717,592.609619 
	C1148.833008,593.111511 1148.706299,593.613342 1148.579590,594.115234 
	C1150.909058,593.003845 1153.453979,590.677917 1155.520874,591.044800 
	C1159.317871,591.718689 1162.860107,593.217651 1166.913330,592.283081 
	C1167.660278,592.110840 1169.831055,594.150208 1169.756348,595.034546 
	C1169.334839,600.023560 1172.795532,602.022949 1176.122803,604.226501 
	C1179.487915,606.455200 1181.380493,609.223999 1179.798218,612.730103 
	C1182.750977,614.221008 1186.282593,615.006165 1188.256104,617.195679 
	C1193.331543,622.826416 1199.584595,626.167908 1206.485962,628.682556 
	C1207.578003,629.080505 1208.664795,629.493958 1209.747559,629.916809 
	C1219.057495,633.552979 1222.469238,642.065857 1218.486084,651.277954 
	C1217.171143,654.318970 1215.187500,655.135925 1211.601074,653.937317 
	C1210.886719,654.257507 1210.776001,654.795715 1210.665283,655.333923 
	C1210.665161,659.347168 1210.665161,663.360413 1210.665161,667.373657 
	C1210.190674,667.377563 1209.716187,667.381531 1209.241699,667.385437 
	C1210.304810,668.633484 1212.127808,669.815735 1212.242920,671.145752 
	C1212.394775,672.901489 1211.548340,675.008423 1210.499512,676.528870 
	C1209.439575,678.065857 1207.608765,679.071228 1206.115479,680.309448 
	C1208.083008,681.127136 1210.050537,681.944885 1212.013428,682.760559 
	C1208.360107,691.536926 1201.502441,689.634766 1194.093872,686.937439 
	C1198.988037,694.387512 1208.399780,690.694580 1214.632812,696.309326 
	C1212.898315,697.350403 1210.837769,698.587280 1208.818481,699.799377 
	C1212.327148,702.510071 1214.916870,704.150269 1217.059570,706.247192 
	C1220.648438,709.759277 1217.160400,711.643250 1214.624756,713.808228 
	C1220.799805,717.159363 1219.623657,722.653625 1218.718994,727.723022 
	C1217.826172,732.726074 1216.150635,737.589417 1214.446777,743.887512 
	C1212.680664,742.548767 1210.730469,741.552307 1209.445557,740.003906 
	C1205.978882,735.826477 1203.680908,730.076233 1195.928955,731.171082 
	C1193.103760,727.579834 1190.897461,724.372253 1188.817017,720.800903 
	C1189.719971,718.646667 1190.497070,716.856323 1191.725220,714.026489 
	C1195.291016,718.678345 1198.363647,722.686951 1201.466187,726.734497 
	C1203.215576,726.458008 1205.097656,726.160583 1206.360962,725.960938 
	C1208.015625,729.116821 1209.338135,731.639221 1211.187622,735.166626 
	C1212.196655,732.227112 1212.823486,730.580017 1213.327881,728.896240 
	C1214.584595,724.701904 1216.821777,720.300842 1210.512573,717.896423 
	C1209.700073,717.586792 1209.495850,715.722412 1208.973999,714.594910 
	C1208.595947,713.778625 1208.367554,712.622986 1207.712646,712.249817 
	C1204.141968,710.215210 1200.520996,708.245117 1196.797363,706.510193 
	C1193.666748,705.051575 1191.893921,703.198669 1193.483887,699.474670 
	C1195.173950,698.874146 1196.939209,698.246887 1199.192383,697.446289 
	C1196.268066,695.712158 1193.789673,694.207947 1191.276367,692.764587 
	C1189.729248,691.876343 1188.172241,690.456177 1186.545654,690.343201 
	C1173.879395,689.463867 1169.353882,685.340210 1166.704956,672.883545 
	C1166.149414,670.270996 1164.073486,667.389160 1161.851929,665.864807 
	C1158.658081,663.673157 1155.050537,662.781799 1151.730591,659.837708 
	C1147.399780,655.997192 1143.447998,652.150757 1141.369629,647.119385 
	C1139.454346,642.482300 1137.121216,639.218445 1132.723267,636.633240 
	C1129.985840,635.024170 1128.972656,630.613342 1126.289551,628.749817 
	C1122.088745,625.832031 1120.728027,622.094238 1120.180664,617.436646 
	C1119.314453,610.065857 1117.157715,608.009949 1110.016357,605.965698 
	C1107.602661,605.274780 1104.057739,604.081787 1103.479614,602.316040 
	C1102.068237,598.005310 1098.892578,597.997314 1095.657349,597.007568 
	C1093.810425,596.442505 1091.290771,594.838135 1090.995239,593.326050 
	C1090.682373,591.725464 1092.290039,588.455872 1093.683105,588.048279 
	C1098.619629,586.603943 1105.791748,590.457397 1108.482788,594.869873 
	C1109.317871,596.239197 1110.850098,597.922424 1112.234131,598.095520 
	C1119.966553,599.062927 1123.328247,604.325562 1126.305176,610.671082 
	C1128.060425,614.412109 1131.303833,617.424805 1133.538086,620.978699 
	C1136.622681,625.885498 1140.042114,630.239624 1145.630859,632.566895 
	C1146.467773,632.915527 1146.474121,634.998230 1147.106567,636.145447 
	C1149.374023,640.258850 1151.745361,644.315002 1154.325684,648.826843 
	C1156.855347,646.407776 1158.531494,644.804871 1160.583008,642.843079 
	C1160.583008,645.917786 1160.583008,648.046143 1160.583008,650.174500 
	C1160.969360,649.920166 1161.355591,649.665833 1161.741943,649.411438 
	C1170.178101,656.479370 1174.962280,666.355835 1180.456299,675.405212 
	C1181.666016,673.160706 1183.024414,670.640625 1184.688965,667.552429 
	C1189.033813,674.518188 1192.576782,681.628479 1200.679810,683.255737 
	C1201.314087,678.480164 1201.903687,674.041077 1202.493286,669.601990 
	C1202.876709,667.021362 1200.414062,663.833069 1205.665161,662.518311 
	C1206.192627,662.386108 1206.639282,660.013550 1206.339355,658.890259 
	C1205.703613,656.509949 1204.625977,654.232971 1203.590698,651.977417 
	C1202.026245,648.568726 1202.035400,645.604004 1205.747681,643.357117 
	C1206.516968,643.725098 1207.495605,644.022644 1208.268188,644.597168 
	C1210.077881,645.942749 1211.788696,647.421021 1213.577148,648.876160 
	C1216.238525,641.745728 1215.442749,637.044434 1210.228394,635.352295 
	C1197.997925,631.383179 1187.666016,623.573364 1175.771729,618.992065 
	C1174.939819,618.671570 1174.033081,617.300354 1174.003540,616.390503 
	C1173.933228,614.219482 1174.367065,612.032104 1174.656128,609.293884 
	C1171.354004,605.817383 1165.038818,604.003540 1164.842041,597.469299 
	C1162.902466,597.598083 1160.515259,598.501099 1159.478149,597.686096 
	C1156.344238,595.223022 1154.051270,596.843689 1151.389648,598.228088 
	C1148.247192,599.862366 1145.712524,599.718689 1143.547852,596.116272 
	C1142.606689,594.550232 1139.921753,593.866882 1137.898926,593.147278 
	C1132.011230,591.052734 1125.820190,589.632385 1120.244385,586.925354 
	C1117.921265,585.797607 1116.811401,582.109131 1115.232056,579.534607 
	C1114.340088,578.080322 1113.886841,576.272278 1112.765137,575.058838 
	C1108.994141,570.979553 1105.011963,567.095520 1100.737305,562.757935 
	C1102.826538,561.713989 1104.004150,561.150085 1105.158447,560.542236 
	C1106.448120,559.863037 1108.746826,559.191589 1108.781860,558.432434 
	C1108.856567,556.817627 1108.114380,554.770508 1106.969238,553.664856 
	C1106.419434,553.134094 1104.135010,554.202148 1102.734741,554.783569 
	C1096.081421,557.546265 1089.680298,561.645508 1082.768188,562.847534 
	C1076.067017,564.013000 1068.853271,562.231445 1061.811279,561.740356 
	C1061.811279,559.400085 1061.811279,557.924805 1061.811279,556.274048 
	C1063.575439,555.791443 1065.292114,555.321838 1067.450806,554.731262 
	C1064.501831,551.173462 1061.703003,547.796936 1059.132690,544.696106 
	C1061.638306,542.329956 1064.771484,540.679199 1065.721069,538.194031 
	C1067.530884,533.457397 1067.880737,528.184814 1069.258545,523.252625 
	C1070.039062,520.458313 1071.670898,517.904297 1072.893555,515.230286 
	C1073.916992,512.992004 1075.243652,510.823242 1075.840820,508.472443 
	C1077.534790,501.802368 1079.133179,500.589050 1085.876465,501.626038 
	C1087.021851,494.906464 1088.228149,493.851929 1095.223267,493.455261 
	C1100.651489,493.147430 1103.291382,490.594513 1103.411133,485.355042 
	C1103.514038,480.857971 1103.804321,476.326996 1103.384766,471.869995 
	C1103.117065,469.025635 1102.387695,465.742493 1100.676147,463.611053 
	C1096.376953,458.257202 1092.046143,452.620178 1084.770264,450.617676 
	C1085.541992,449.148407 1086.261841,448.018188 1086.981689,446.887970 
M1176.033691,682.721313 
	C1176.566772,682.677002 1177.099976,682.632690 1177.633057,682.588379 
	C1177.391968,682.219238 1177.151001,681.850098 1176.536377,680.811584 
	C1175.146362,677.215942 1173.756470,673.620300 1172.366577,670.024597 
	C1171.717773,670.301758 1171.069092,670.578857 1170.420288,670.855957 
	C1172.222046,674.632812 1174.023682,678.409668 1176.033691,682.721313 
M1181.781372,685.018921 
	C1184.796143,685.018921 1187.810791,685.018921 1190.825562,685.018921 
	C1190.771118,684.608704 1190.716675,684.198486 1190.662354,683.788269 
	C1188.804321,682.381226 1186.946411,680.974243 1185.139893,679.606140 
	C1183.829834,681.312378 1182.417114,683.152283 1181.781372,685.018921 
M1205.479858,701.753845 
	C1204.229858,701.888672 1202.979980,702.023560 1200.815186,702.257080 
	C1203.165161,704.040649 1204.854858,705.323181 1206.676025,706.705444 
	C1208.679932,701.876099 1208.679932,701.876099 1205.479858,701.753845 
M1087.083496,502.609100 
	C1086.734619,502.429779 1086.385620,502.250458 1086.036621,502.071106 
	C1085.944824,502.435120 1085.853027,502.799133 1085.761353,503.163177 
	C1086.331787,503.303406 1086.902100,503.443634 1087.083496,502.609100 
z"/>
<path fill="#F3F2F2" opacity="1.000000" stroke="none" 
	d="
M650.303589,696.604492 
	C653.918640,693.401489 657.533630,690.198486 661.049255,687.083496 
	C660.883606,686.621277 660.875732,686.396545 660.767761,686.326782 
	C649.756531,679.209778 652.256409,679.594116 656.714233,668.660522 
	C663.486389,652.050964 675.316101,639.395752 687.005737,626.547852 
	C694.685852,618.106750 701.004883,608.472961 702.503113,597.522400 
	C703.998718,586.591187 711.963379,581.936096 718.086853,575.180542 
	C719.324036,573.815613 720.964294,571.957947 720.885071,570.405640 
	C720.531677,563.478088 723.924255,559.183716 728.686462,554.482117 
	C732.225342,550.988220 733.673645,545.065002 735.256836,539.976074 
	C737.537781,532.644531 738.914734,525.035767 741.049011,517.652771 
	C741.952820,514.526123 744.225769,513.981506 747.757874,514.741516 
	C758.298828,517.009766 763.755127,523.780701 766.547607,533.575500 
	C766.822937,534.541260 768.169495,535.518250 769.229736,535.892334 
	C776.115967,538.322083 783.015015,540.744202 790.025452,542.768250 
	C791.387512,543.161560 793.859558,542.290649 794.798279,541.157166 
	C801.635925,532.900635 806.899475,523.886292 809.122559,513.101440 
	C809.811584,509.758606 813.203796,506.982025 815.321960,503.920990 
	C816.398743,502.364990 818.133850,500.829010 818.306030,499.153931 
	C819.354675,488.951141 824.902039,480.969879 830.408875,472.853210 
	C833.021118,469.002960 835.387939,468.074219 839.233582,471.263214 
	C842.778503,474.202789 846.749634,476.628326 850.893555,479.532990 
	C856.062012,471.942352 861.018494,464.705048 865.926575,457.435028 
	C867.960571,454.422241 869.761597,451.960724 873.824341,455.351929 
	C874.569397,455.973877 878.767517,454.078552 879.804382,452.385406 
	C881.798279,449.129150 883.749939,446.779449 887.588440,445.380981 
	C890.008423,444.499329 891.871765,441.492279 893.477295,439.098328 
	C896.739746,434.233765 898.519836,427.397614 902.953857,424.498505 
	C912.370789,418.341248 912.084900,409.351562 913.346313,400.347351 
	C913.807251,397.057068 914.444275,393.350037 916.312500,390.790375 
	C920.185242,385.484314 922.004761,380.128113 920.815918,373.574951 
	C920.429504,371.445099 920.928955,368.878021 921.804199,366.847504 
	C924.467041,360.669708 927.350342,360.044983 932.437683,364.168335 
	C952.864380,380.724426 973.281738,397.292114 994.237183,414.289124 
	C998.847961,403.440063 1003.347229,392.853485 1007.993530,381.920959 
	C1016.027405,383.916077 1024.400391,384.892181 1031.758179,388.156555 
	C1038.141602,390.988617 1043.886963,395.893860 1048.934204,400.875793 
	C1052.204468,404.103760 1049.831055,408.343567 1046.926758,411.488831 
	C1041.366577,417.510132 1041.347656,417.511871 1047.244751,423.399933 
	C1048.412354,424.565643 1049.689087,425.622223 1051.279663,426.507874 
	C1051.643921,426.286560 1051.760864,426.198425 1051.509033,426.572998 
	C1052.010010,427.329285 1052.762817,427.711029 1053.569336,428.394226 
	C1054.446899,430.327881 1055.270630,431.960114 1055.708252,433.547974 
	C1051.689453,431.435760 1047.471191,429.983582 1044.532104,427.187073 
	C1034.917969,418.039276 1035.097046,417.851105 1043.525391,408.096680 
	C1046.375366,404.798340 1045.649780,403.052307 1041.543823,401.071381 
	C1039.006470,399.847260 1036.907349,397.679779 1034.690796,395.840118 
	C1033.575439,394.914551 1032.799438,393.152710 1031.591675,392.838470 
	C1025.548706,391.266388 1019.445251,389.849670 1013.284607,388.872681 
	C1012.042114,388.675629 1009.745300,390.296722 1009.151062,391.624176 
	C1005.218506,400.408875 1001.628235,409.346466 997.897583,418.222107 
	C997.365845,419.487244 996.677551,420.686584 996.047974,421.943878 
	C973.066528,403.273926 950.509521,384.948822 926.837585,365.717957 
	C926.232239,369.290710 925.128235,371.739960 925.586182,373.850250 
	C927.091003,380.785248 925.211609,386.579193 921.112732,392.085632 
	C919.700500,393.982788 918.435059,396.366333 918.159058,398.655090 
	C917.549805,403.707336 917.721008,408.848969 917.328430,413.935181 
	C917.221313,415.323151 916.525879,416.889130 915.609192,417.948181 
	C913.120300,420.823547 910.193604,423.325775 907.763611,426.244904 
	C904.626038,430.014313 900.874451,433.664764 899.074402,438.057739 
	C896.745667,443.740967 894.172852,448.377472 888.137695,450.639130 
	C886.662231,451.192017 885.349915,452.837555 884.502502,454.294739 
	C880.882690,460.519257 876.657959,462.363434 869.700623,460.369110 
	C864.855225,467.488647 859.954285,474.612366 855.142578,481.795868 
	C853.074402,484.883484 850.814209,485.467041 847.713989,483.170288 
	C843.736328,480.223511 839.605652,477.483093 835.213257,474.425690 
	C829.532654,482.432220 824.374634,490.125397 822.923218,499.879791 
	C822.518677,502.598877 820.079224,505.048401 818.453186,507.543304 
	C816.775818,510.117157 813.799744,512.422424 813.390442,515.145569 
	C811.539368,527.461304 804.235596,536.735840 797.044800,546.068176 
	C795.969788,547.463379 792.879089,548.529358 791.216675,548.045166 
	C781.975342,545.353333 772.865234,542.198547 763.773926,539.019897 
	C762.630981,538.620239 761.170044,537.238342 761.028809,536.158203 
	C759.599731,525.233154 756.092102,521.418762 745.157837,519.760254 
	C744.658936,522.815918 744.521973,525.993469 743.590210,528.917847 
	C740.935364,537.250549 738.075500,545.524414 735.020264,553.718384 
	C734.278137,555.708801 732.303101,557.203613 731.194641,559.101318 
	C729.299927,562.344849 726.427734,565.647705 726.205139,569.071228 
	C725.951416,572.973145 724.910034,575.677612 722.203430,578.160339 
	C718.172180,581.858093 714.163025,585.586853 710.309082,589.465942 
	C709.354553,590.426636 708.669312,591.965393 708.478210,593.325317 
	C706.792480,605.319763 701.877991,616.102539 694.222046,625.130066 
	C681.133667,640.563232 666.953979,655.071411 659.182556,674.298157 
	C657.952393,677.341614 657.875000,678.992004 660.889221,680.725098 
	C668.210266,684.934387 668.141541,689.387024 660.968079,693.889221 
	C658.716675,695.302124 656.613403,696.950928 654.377014,698.538147 
	C659.030029,703.955811 659.017822,705.166260 654.809692,708.829834 
	C653.206909,704.513489 651.755249,700.559021 650.303589,696.604492 
z"/>
<path fill="#F4F4F4" opacity="1.000000" stroke="none" 
	d="
M1332.802368,642.399841 
	C1332.313843,642.151550 1331.437988,641.628662 1331.391846,641.693787 
	C1323.526978,652.794312 1316.676880,664.440308 1312.179443,677.367432 
	C1311.095703,680.482788 1309.456543,683.406006 1308.390869,686.526245 
	C1307.548584,688.992310 1305.404541,691.568298 1308.541260,694.232422 
	C1309.066528,694.678528 1308.524536,697.231079 1307.740112,698.236023 
	C1301.001953,706.867920 1297.973633,717.322815 1293.218628,726.924377 
	C1292.361206,728.656006 1289.967285,729.626831 1287.695068,731.410034 
	C1286.643433,724.879761 1290.195923,715.761536 1295.528076,710.619812 
	C1289.343262,711.915344 1282.829956,709.962830 1279.957153,716.166992 
	C1276.990479,722.573608 1274.805908,729.449463 1273.177002,736.332581 
	C1271.992310,741.338989 1272.267578,746.691040 1271.892090,751.888977 
	C1272.337402,751.991577 1272.782715,752.094238 1273.228149,752.196838 
	C1274.534546,748.440430 1275.840942,744.683960 1277.149658,740.920959 
	C1278.833862,740.920959 1280.287231,740.920959 1281.723145,740.920959 
	C1283.098022,754.609680 1281.893433,756.650513 1270.610596,759.022278 
	C1271.002930,761.170227 1271.401733,763.352905 1271.970703,766.467712 
	C1269.446289,767.035461 1266.742676,767.480042 1264.163208,768.309875 
	C1263.229248,768.610474 1262.706055,770.010010 1261.795044,770.597168 
	C1259.958252,771.781067 1257.744141,773.852844 1256.134155,773.501709 
	C1254.518799,773.149353 1253.206177,770.420837 1252.201782,768.502930 
	C1250.914673,766.045227 1250.095825,763.345276 1249.026855,760.769836 
	C1245.830200,753.068237 1243.667358,745.660645 1247.025024,737.002563 
	C1250.234497,728.726868 1251.553101,719.720825 1253.744019,711.046204 
	C1254.841309,706.701294 1256.030151,702.379517 1257.350708,697.393616 
	C1257.294312,697.357239 1256.240479,696.677124 1254.578247,695.604309 
	C1256.245972,694.372742 1257.695679,693.302185 1259.333740,692.092529 
	C1258.398926,690.891174 1257.769409,690.082275 1257.777832,690.093079 
	C1260.165039,686.634155 1262.168945,683.503845 1264.422485,680.565002 
	C1265.490967,679.171570 1266.918701,677.316833 1268.388062,677.107910 
	C1272.553833,676.515320 1273.970337,672.029968 1273.661499,670.498718 
	C1272.726685,665.864990 1275.278931,663.769897 1278.404175,661.404846 
	C1277.157959,659.828125 1276.161255,658.567139 1275.280273,657.452698 
	C1276.880737,647.712402 1283.470703,655.037720 1287.657104,654.013794 
	C1287.309204,653.676331 1286.961304,653.338928 1286.613525,653.001465 
	C1288.362793,650.622070 1290.246582,648.326233 1291.801025,645.825745 
	C1292.510864,644.683716 1292.924194,643.101318 1292.787354,641.790100 
	C1292.712036,641.068115 1291.269653,640.050537 1290.351318,639.941467 
	C1288.093750,639.673157 1285.782837,639.853577 1283.504150,639.853577 
	C1282.945190,635.197937 1286.159912,630.755310 1292.176636,629.390869 
	C1295.650635,628.602966 1297.336914,626.987976 1298.275391,623.881470 
	C1299.291260,620.518555 1301.415649,619.007141 1305.146484,618.608276 
	C1316.191406,617.427673 1327.182617,615.743835 1338.450317,614.222290 
	C1339.460327,618.226440 1338.023926,620.653137 1335.140991,622.994324 
	C1333.491455,624.333923 1332.099487,626.668335 1331.728882,628.756714 
	C1331.066040,632.490906 1331.245361,636.377380 1331.150024,640.202087 
	C1331.144897,640.406799 1331.852295,640.629333 1332.610107,640.946045 
	C1332.929077,641.499023 1332.865723,641.949402 1332.802368,642.399841 
M1326.979980,625.725891 
	C1327.367920,624.171204 1327.755981,622.616577 1328.303223,620.423523 
	C1319.637085,621.582397 1311.353149,622.690186 1303.034912,623.802490 
	C1304.810059,633.344543 1296.731445,632.143188 1291.124023,635.218262 
	C1301.511719,636.699341 1295.621582,645.824219 1300.937744,650.121094 
	C1297.651733,650.693909 1295.326782,651.099243 1292.433350,651.603638 
	C1293.831177,653.748108 1294.944458,655.455750 1296.305298,657.543457 
	C1291.607544,658.209656 1287.397339,658.806763 1283.764648,659.321899 
	C1281.269653,666.572937 1278.915771,673.413635 1276.407227,680.703857 
	C1274.676636,680.948608 1271.738525,681.364197 1268.209106,681.863403 
	C1269.424805,684.155640 1270.077148,685.385681 1270.364624,685.927734 
	C1267.747192,688.822937 1265.450806,691.363037 1262.918579,694.164062 
	C1265.804810,695.606628 1267.479736,696.443726 1269.040649,697.223877 
	C1265.357788,700.069275 1261.913574,702.730347 1258.336548,705.493896 
	C1264.171021,711.109314 1264.016968,712.458008 1257.996826,716.569092 
	C1260.939575,724.856384 1252.583252,730.290710 1252.681885,737.909546 
	C1253.734375,738.602722 1254.852051,739.338745 1256.157349,740.198303 
	C1254.625000,741.659729 1253.428711,742.803406 1252.229370,743.944092 
	C1248.511353,747.480347 1250.862061,750.431946 1252.596802,754.014038 
	C1254.701050,758.359619 1255.636353,763.271240 1257.077271,767.937988 
	C1259.423828,761.754211 1258.609619,754.307556 1266.800537,752.626770 
	C1267.139526,749.659363 1267.552734,747.184204 1267.682129,744.694275 
	C1268.054077,737.540894 1267.930054,730.298279 1273.171631,724.437988 
	C1273.735962,723.807007 1273.866699,722.567688 1273.807495,721.635315 
	C1273.395142,715.132568 1276.076294,710.554016 1282.008179,707.817505 
	C1282.445068,707.615845 1282.683838,706.753296 1282.813843,706.154358 
	C1283.951172,700.914062 1286.849731,697.313049 1292.406494,695.647034 
	C1293.854980,699.018311 1295.241577,702.245789 1297.218018,706.845886 
	C1299.596313,702.716125 1303.195068,699.310425 1302.604736,696.954224 
	C1300.900391,690.152405 1304.083496,685.071533 1306.385132,679.517273 
	C1306.892822,678.291992 1307.252563,676.994934 1307.857300,675.822083 
	C1313.298828,665.270020 1318.834473,654.765869 1324.188721,644.169983 
	C1324.970581,642.622681 1325.049927,640.677734 1325.240601,638.893921 
	C1325.323242,638.121948 1324.511353,636.687927 1324.701782,636.576904 
	C1329.059326,634.037537 1325.947754,629.883118 1326.979980,625.725891 
z"/>
<path fill="#E63223" opacity="1.000000" stroke="none" 
	d="
M1056.094482,433.592346 
	C1055.270630,431.960114 1054.446899,430.327881 1053.419434,428.015808 
	C1052.730835,426.956787 1052.245850,426.577637 1051.760864,426.198425 
	C1051.760864,426.198425 1051.643921,426.286560 1051.577393,426.257202 
	C1051.676025,424.695557 1052.049805,423.152802 1051.973511,421.632660 
	C1051.374146,409.707764 1058.992920,399.374695 1070.139771,397.119720 
	C1081.850830,394.750610 1093.299805,400.880493 1097.527344,411.875183 
	C1099.945679,418.164490 1099.096069,424.263824 1095.977417,430.089447 
	C1093.083008,435.496216 1090.066650,440.837738 1087.042969,446.547974 
	C1086.261841,448.018188 1085.541992,449.148407 1084.533447,450.848022 
	C1083.097290,453.422729 1082.207397,455.648193 1080.732422,457.373322 
	C1079.155884,459.217133 1077.126587,461.641998 1075.108643,461.831726 
	C1073.511353,461.981964 1071.117676,459.450348 1069.968140,457.566315 
	C1065.160645,449.686554 1060.689087,441.601929 1056.094482,433.592346 
M1065.932495,423.293396 
	C1069.763672,429.380493 1075.921631,431.185272 1081.047607,427.723236 
	C1085.128906,424.966827 1086.641235,419.702179 1084.574341,415.446198 
	C1082.311401,410.786469 1076.995361,408.572845 1071.914673,410.174530 
	C1067.037354,411.712097 1064.538940,416.658508 1065.932495,423.293396 
z"/>
<path fill="#E73323" opacity="1.000000" stroke="none" 
	d="
M650.084961,696.365356 
	C651.755249,700.559021 653.206909,704.513489 654.773926,709.223999 
	C653.745483,713.774658 653.134338,717.842590 651.354858,721.311035 
	C646.647766,730.485229 641.559265,739.473083 636.323853,748.359070 
	C635.201904,750.263428 632.788208,752.636169 631.024719,752.591980 
	C629.213684,752.546631 626.948914,750.119812 625.786743,748.190552 
	C620.555786,739.507141 615.646057,730.630249 610.620483,721.823120 
	C610.059875,720.547485 609.499268,719.271912 608.798096,717.684082 
	C604.185547,700.002625 616.712830,688.225464 629.199280,687.311157 
	C637.577759,686.697571 644.303040,690.079041 650.084961,696.365356 
M621.195801,712.690186 
	C623.711304,718.000244 627.383911,720.586243 632.118347,719.998718 
	C636.793457,719.418518 640.125671,717.099609 641.090881,711.254822 
	C641.015808,704.468140 637.029724,700.112732 631.024536,700.255920 
	C624.772217,700.404968 620.813293,705.143616 621.195801,712.690186 
z"/>
<path fill="#E73425" opacity="1.000000" stroke="none" 
	d="
M1188.691162,721.164673 
	C1190.897461,724.372253 1193.103760,727.579834 1195.491699,730.995605 
	C1195.871094,732.316284 1196.068848,733.428833 1196.571655,735.613647 
	C1195.770874,741.080505 1194.665039,745.475037 1193.559082,749.869568 
	C1193.128052,750.593872 1192.697021,751.318115 1192.207031,752.464966 
	C1191.104370,754.422180 1190.060791,755.956909 1188.828369,758.104431 
	C1184.932739,765.394470 1181.225830,772.071655 1177.519043,778.748901 
	C1175.567627,779.562439 1173.616211,780.375977 1171.001465,781.145508 
	C1169.942749,780.748230 1169.547485,780.395020 1169.035889,779.745361 
	C1168.588867,779.296936 1168.258301,779.144836 1167.962402,778.994690 
	C1167.997192,778.996704 1167.993896,779.066467 1168.148560,778.709961 
	C1165.859985,774.577026 1163.416748,770.800476 1160.973633,767.023926 
	C1158.975220,762.807922 1156.976807,758.591980 1154.645508,753.770630 
	C1148.876465,744.474792 1147.772339,735.542664 1153.064941,726.124756 
	C1154.995483,724.053528 1156.673340,722.125244 1158.674072,720.073608 
	C1169.165894,713.731262 1179.045898,714.578979 1188.691162,721.164673 
M1182.046631,742.678772 
	C1184.370361,737.940002 1183.137695,733.831909 1179.162720,730.869263 
	C1175.490234,728.132080 1171.353638,727.481201 1166.804321,731.033875 
	C1163.074707,733.438110 1161.538330,737.502075 1163.301025,740.901489 
	C1164.907715,743.999695 1168.479126,746.934265 1171.817261,748.053833 
	C1175.633667,749.333862 1179.582397,747.433655 1182.046631,742.678772 
z"/>
<path fill="#F7F7F7" opacity="1.000000" stroke="none" 
	d="
M1332.669922,642.817871 
	C1332.865723,641.949402 1332.929077,641.499023 1332.997559,640.707031 
	C1333.952881,640.168030 1334.902954,639.970459 1335.853149,639.772888 
	C1335.493652,639.462524 1335.134277,639.152100 1334.774780,638.841736 
	C1336.095581,637.232422 1337.434814,635.637695 1338.732422,634.009949 
	C1340.116699,632.273376 1341.646484,630.617188 1342.787964,628.729553 
	C1345.759766,623.815186 1348.179443,618.511841 1351.605713,613.954895 
	C1352.943726,612.175232 1356.385010,611.976929 1358.868286,611.058411 
	C1359.233887,611.449585 1359.599487,611.840820 1359.965088,612.231995 
	C1355.077515,621.881775 1350.390259,631.641174 1345.200073,641.125305 
	C1343.234741,644.716492 1339.660156,646.959412 1335.195923,645.998779 
	C1334.159668,645.775757 1333.415894,644.192932 1332.669922,642.817871 
z"/>
<path fill="#F2F2F2" opacity="1.000000" stroke="none" 
	d="
M1193.970703,749.850586 
	C1194.665039,745.475037 1195.770874,741.080505 1196.687256,736.452026 
	C1197.087402,737.385254 1197.607910,738.593750 1198.277832,739.712830 
	C1202.142212,746.168579 1201.447632,748.000732 1193.970703,749.850586 
z"/>
<path fill="#010101" opacity="1.000000" stroke="none" 
	d="
M1152.812134,726.267761 
	C1147.772339,735.542664 1148.876465,744.474792 1154.415283,753.526611 
	C1151.920776,754.370422 1149.323730,754.852783 1147.209106,755.245544 
	C1143.984741,753.729248 1141.021362,752.100525 1137.887817,750.925781 
	C1134.503296,749.657043 1132.840942,747.881714 1133.240112,743.920959 
	C1133.525269,741.091858 1132.568481,738.137634 1132.166016,735.239258 
	C1131.515991,735.086914 1130.865967,734.934570 1130.215942,734.782166 
	C1128.881226,738.269897 1127.656250,741.805359 1126.165283,745.224976 
	C1125.423462,746.926514 1124.194336,748.415649 1123.185669,750.000854 
	C1122.005005,748.921570 1120.711914,747.938477 1119.678467,746.733032 
	C1118.825195,745.737671 1118.280762,744.477905 1117.596069,743.337402 
	C1112.929321,735.563721 1111.718506,735.323486 1104.345215,740.996948 
	C1101.630005,736.776367 1098.225464,736.824890 1093.200684,737.248108 
	C1087.958496,737.689575 1080.948608,737.893860 1076.667725,731.690857 
	C1075.559082,732.601624 1074.211548,733.318665 1073.438843,734.433960 
	C1072.250732,736.148743 1070.192505,738.837402 1070.760498,739.863281 
	C1071.938599,741.991028 1074.381592,744.214355 1076.693848,744.765808 
	C1083.055664,746.283142 1089.667603,746.728699 1096.072632,748.101685 
	C1098.075806,748.531067 1099.735352,750.562500 1101.916992,752.121277 
	C1104.128296,750.612732 1106.552612,748.958923 1108.980225,747.302246 
	C1109.260254,747.430969 1109.724976,747.504089 1109.786621,747.702393 
	C1113.300049,759.016418 1121.913452,762.352844 1132.622925,762.063843 
	C1136.565674,761.957458 1139.469604,762.812927 1142.064819,766.152954 
	C1146.486816,771.844116 1149.460083,771.819763 1155.574097,766.156616 
	C1156.016113,772.110962 1156.662476,777.286438 1156.706421,782.466980 
	C1156.745605,787.089233 1158.307739,790.006653 1162.984131,791.278625 
	C1164.245239,791.621765 1165.131348,793.378906 1166.165771,794.508789 
	C1166.910156,795.322021 1167.460205,796.444763 1168.364502,796.956787 
	C1171.951416,798.987488 1175.643555,800.832397 1179.053101,802.618591 
	C1179.296509,803.247620 1179.471191,803.522888 1179.505859,803.814880 
	C1180.115845,808.944458 1181.396851,814.233765 1175.054932,817.198242 
	C1174.490234,817.462219 1174.979980,819.981873 1174.979980,822.993652 
	C1179.254883,821.190125 1183.178101,820.124634 1186.419678,818.012817 
	C1190.168335,815.570496 1193.738525,814.153870 1198.078979,815.708984 
	C1198.984985,816.033447 1200.407471,816.398682 1200.589722,817.033081 
	C1202.540771,823.824402 1208.295898,823.913452 1214.535156,825.007507 
	C1212.768311,822.439758 1211.221313,820.555847 1210.109863,818.442810 
	C1209.417236,817.126038 1209.138184,815.467407 1209.110474,813.954285 
	C1209.069214,811.696228 1209.413452,809.431091 1209.696533,805.878418 
	C1210.702393,805.942322 1212.994385,805.715271 1215.066406,806.286377 
	C1222.705566,808.392212 1230.234131,810.904541 1237.889893,812.942139 
	C1240.053955,813.518127 1242.735229,813.608215 1244.786011,812.853149 
	C1249.247437,811.210388 1250.371216,813.557495 1251.189331,817.060425 
	C1253.075195,825.134705 1255.049194,833.188354 1257.087280,841.665100 
	C1253.295044,840.932617 1252.807373,844.016602 1252.533081,846.934204 
	C1251.789307,854.844604 1251.239746,862.773315 1250.494019,872.202820 
	C1247.246216,867.540222 1244.468506,863.552551 1241.319580,859.031860 
	C1241.319580,863.283752 1241.319580,866.972534 1241.319580,870.959290 
	C1239.436523,870.959290 1237.450806,870.976257 1235.465332,870.956848 
	C1032.154785,868.971863 828.844360,866.976135 625.533691,865.002380 
	C575.872498,864.520325 526.209717,864.183228 476.550568,863.546509 
	C471.895966,863.486877 467.301208,861.248840 462.611908,860.886719 
	C452.649170,860.117249 442.643646,859.884644 432.652527,859.516846 
	C431.015381,859.456543 428.763336,859.204895 427.819550,860.109802 
	C423.594421,864.161194 418.499084,862.938171 413.663330,862.917664 
	C341.834534,862.612793 270.005981,862.238892 198.177399,861.882263 
	C196.926300,861.876038 195.675125,861.881470 194.350327,861.431519 
	C201.864182,857.631897 209.584961,854.951782 218.059250,854.216064 
	C221.489731,853.918274 224.737411,851.809021 228.128967,850.711670 
	C237.232239,847.766357 246.282394,844.594116 255.527206,842.175415 
	C260.193024,840.954651 264.521881,840.822632 265.261841,834.430603 
	C265.615479,831.375549 267.952942,828.415955 269.843353,825.730957 
	C270.756317,824.434204 272.610901,823.573792 274.213531,823.027710 
	C281.849365,820.426514 289.806671,818.565613 297.073364,815.197876 
	C299.518494,814.064636 301.533508,809.249207 301.504547,806.137695 
	C301.453247,800.627869 303.891907,797.904602 308.376160,795.932434 
	C311.111694,794.729309 313.697510,793.183044 316.442230,792.004272 
	C321.093689,790.006836 323.149414,786.464905 322.229492,781.637451 
	C321.367859,777.115662 323.147675,774.220398 326.864777,772.257751 
	C337.723145,766.524719 348.745697,761.092224 359.479034,755.136658 
	C365.391449,751.856201 371.205872,748.197754 376.446320,743.947510 
	C389.123657,733.665527 401.434631,722.932068 413.905518,712.395020 
	C414.982910,711.484619 416.149872,710.680298 416.191498,710.648743 
	C418.407013,713.568604 419.855377,716.601074 422.245117,718.339294 
	C425.152710,720.454163 425.335510,722.939209 424.847198,725.743896 
	C424.050415,730.320679 425.947906,733.160400 429.569305,735.810852 
	C432.243164,737.767822 433.862213,741.115845 436.414795,743.303040 
	C438.907623,745.438904 441.799286,747.720337 444.861755,748.416809 
	C448.258667,749.189453 450.628387,750.206299 453.107391,752.913330 
	C460.014404,760.455505 468.968262,763.746094 479.145386,761.893860 
	C481.548340,761.456421 483.800079,758.856934 485.611694,756.802551 
	C488.608093,753.404724 492.031799,751.718323 496.544464,750.719299 
	C499.574219,750.048584 502.117615,746.672668 504.586029,744.213501 
	C505.637970,743.165466 505.943268,741.367920 506.656189,739.756531 
	C512.064026,744.468994 516.972351,748.998840 522.192871,753.134766 
	C523.675720,754.309509 526.926208,755.463135 527.908386,754.714355 
	C536.737427,747.983398 548.026978,749.512390 557.571167,745.424561 
	C557.873718,745.294922 558.351562,745.030640 558.492004,745.144470 
	C564.354675,749.898743 567.997986,744.160828 572.145996,741.999207 
	C577.645691,739.133057 578.299927,735.912415 576.323669,730.077637 
	C575.817505,728.583130 576.461060,725.220764 577.043396,725.107056 
	C578.960938,724.732422 581.842896,724.704041 583.018066,725.879150 
	C589.654480,732.515015 591.434021,732.890930 599.490295,728.037720 
	C602.905212,725.980469 606.397461,724.051819 610.237549,721.943909 
	C615.646057,730.630249 620.555786,739.507141 625.786743,748.190552 
	C626.948914,750.119812 629.213684,752.546631 631.024719,752.591980 
	C632.788208,752.636169 635.201904,750.263428 636.323853,748.359070 
	C641.559265,739.473083 646.647766,730.485229 651.354858,721.311035 
	C653.134338,717.842590 653.745483,713.774658 654.925049,709.585815 
	C659.017822,705.166260 659.030029,703.955811 654.377014,698.538147 
	C656.613403,696.950928 658.716675,695.302124 660.968079,693.889221 
	C668.141541,689.387024 668.210266,684.934387 660.889221,680.725098 
	C657.875000,678.992004 657.952393,677.341614 659.182556,674.298157 
	C666.953979,655.071411 681.133667,640.563232 694.222046,625.130066 
	C701.877991,616.102539 706.792480,605.319763 708.478210,593.325317 
	C708.669312,591.965393 709.354553,590.426636 710.309082,589.465942 
	C714.163025,585.586853 718.172180,581.858093 722.203430,578.160339 
	C724.910034,575.677612 725.951416,572.973145 726.205139,569.071228 
	C726.427734,565.647705 729.299927,562.344849 731.194641,559.101318 
	C732.303101,557.203613 734.278137,555.708801 735.020264,553.718384 
	C738.075500,545.524414 740.935364,537.250549 743.590210,528.917847 
	C744.521973,525.993469 744.658936,522.815918 745.157837,519.760254 
	C756.092102,521.418762 759.599731,525.233154 761.028809,536.158203 
	C761.170044,537.238342 762.630981,538.620239 763.773926,539.019897 
	C772.865234,542.198547 781.975342,545.353333 791.216675,548.045166 
	C792.879089,548.529358 795.969788,547.463379 797.044800,546.068176 
	C804.235596,536.735840 811.539368,527.461304 813.390442,515.145569 
	C813.799744,512.422424 816.775818,510.117157 818.453186,507.543304 
	C820.079224,505.048401 822.518677,502.598877 822.923218,499.879791 
	C824.374634,490.125397 829.532654,482.432220 835.213257,474.425690 
	C839.605652,477.483093 843.736328,480.223511 847.713989,483.170288 
	C850.814209,485.467041 853.074402,484.883484 855.142578,481.795868 
	C859.954285,474.612366 864.855225,467.488647 869.700623,460.369110 
	C876.657959,462.363434 880.882690,460.519257 884.502502,454.294739 
	C885.349915,452.837555 886.662231,451.192017 888.137695,450.639130 
	C894.172852,448.377472 896.745667,443.740967 899.074402,438.057739 
	C900.874451,433.664764 904.626038,430.014313 907.763611,426.244904 
	C910.193604,423.325775 913.120300,420.823547 915.609192,417.948181 
	C916.525879,416.889130 917.221313,415.323151 917.328430,413.935181 
	C917.721008,408.848969 917.549805,403.707336 918.159058,398.655090 
	C918.435059,396.366333 919.700500,393.982788 921.112732,392.085632 
	C925.211609,386.579193 927.091003,380.785248 925.586182,373.850250 
	C925.128235,371.739960 926.232239,369.290710 926.837585,365.717957 
	C950.509521,384.948822 973.066528,403.273926 996.047974,421.943878 
	C996.677551,420.686584 997.365845,419.487244 997.897583,418.222107 
	C1001.628235,409.346466 1005.218506,400.408875 1009.151062,391.624176 
	C1009.745300,390.296722 1012.042114,388.675629 1013.284607,388.872681 
	C1019.445251,389.849670 1025.548706,391.266388 1031.591675,392.838470 
	C1032.799438,393.152710 1033.575439,394.914551 1034.690796,395.840118 
	C1036.907349,397.679779 1039.006470,399.847260 1041.543823,401.071381 
	C1045.649780,403.052307 1046.375366,404.798340 1043.525391,408.096680 
	C1035.097046,417.851105 1034.917969,418.039276 1044.532104,427.187073 
	C1047.471191,429.983582 1051.689453,431.435760 1055.708252,433.547974 
	C1060.689087,441.601929 1065.160645,449.686554 1069.968140,457.566315 
	C1071.117676,459.450348 1073.511353,461.981964 1075.108643,461.831726 
	C1077.126587,461.641998 1079.155884,459.217133 1080.732422,457.373322 
	C1082.207397,455.648193 1083.097290,453.422729 1084.481445,451.187073 
	C1092.046143,452.620178 1096.376953,458.257202 1100.676147,463.611053 
	C1102.387695,465.742493 1103.117065,469.025635 1103.384766,471.869995 
	C1103.804321,476.326996 1103.514038,480.857971 1103.411133,485.355042 
	C1103.291382,490.594513 1100.651489,493.147430 1095.223267,493.455261 
	C1088.228149,493.851929 1087.021851,494.906464 1085.876465,501.626038 
	C1079.133179,500.589050 1077.534790,501.802368 1075.840820,508.472443 
	C1075.243652,510.823242 1073.916992,512.992004 1072.893555,515.230286 
	C1071.670898,517.904297 1070.039062,520.458313 1069.258545,523.252625 
	C1067.880737,528.184814 1067.530884,533.457397 1065.721069,538.194031 
	C1064.771484,540.679199 1061.638306,542.329956 1059.132690,544.696106 
	C1061.703003,547.796936 1064.501831,551.173462 1067.450806,554.731262 
	C1065.292114,555.321838 1063.575439,555.791443 1061.811279,556.274048 
	C1061.811279,557.924805 1061.811279,559.400085 1061.811279,561.740356 
	C1068.853271,562.231445 1076.067017,564.013000 1082.768188,562.847534 
	C1089.680298,561.645508 1096.081421,557.546265 1102.734741,554.783569 
	C1104.135010,554.202148 1106.419434,553.134094 1106.969238,553.664856 
	C1108.114380,554.770508 1108.856567,556.817627 1108.781860,558.432434 
	C1108.746826,559.191589 1106.448120,559.863037 1105.158447,560.542236 
	C1104.004150,561.150085 1102.826538,561.713989 1100.737305,562.757935 
	C1105.011963,567.095520 1108.994141,570.979553 1112.765137,575.058838 
	C1113.886841,576.272278 1114.340088,578.080322 1115.232056,579.534607 
	C1116.811401,582.109131 1117.921265,585.797607 1120.244385,586.925354 
	C1125.820190,589.632385 1132.011230,591.052734 1137.898926,593.147278 
	C1139.921753,593.866882 1142.606689,594.550232 1143.547852,596.116272 
	C1145.712524,599.718689 1148.247192,599.862366 1151.389648,598.228088 
	C1154.051270,596.843689 1156.344238,595.223022 1159.478149,597.686096 
	C1160.515259,598.501099 1162.902466,597.598083 1164.842041,597.469299 
	C1165.038818,604.003540 1171.354004,605.817383 1174.656128,609.293884 
	C1174.367065,612.032104 1173.933228,614.219482 1174.003540,616.390503 
	C1174.033081,617.300354 1174.939819,618.671570 1175.771729,618.992065 
	C1187.666016,623.573364 1197.997925,631.383179 1210.228394,635.352295 
	C1215.442749,637.044434 1216.238525,641.745728 1213.577148,648.876160 
	C1211.788696,647.421021 1210.077881,645.942749 1208.268188,644.597168 
	C1207.495605,644.022644 1206.516968,643.725098 1205.747681,643.357117 
	C1202.035400,645.604004 1202.026245,648.568726 1203.590698,651.977417 
	C1204.625977,654.232971 1205.703613,656.509949 1206.339355,658.890259 
	C1206.639282,660.013550 1206.192627,662.386108 1205.665161,662.518311 
	C1200.414062,663.833069 1202.876709,667.021362 1202.493286,669.601990 
	C1201.903687,674.041077 1201.314087,678.480164 1200.679810,683.255737 
	C1192.576782,681.628479 1189.033813,674.518188 1184.688965,667.552429 
	C1183.024414,670.640625 1181.666016,673.160706 1180.456299,675.405212 
	C1174.962280,666.355835 1170.178101,656.479370 1161.741943,649.411438 
	C1161.355591,649.665833 1160.969360,649.920166 1160.583008,650.174500 
	C1160.583008,648.046143 1160.583008,645.917786 1160.583008,642.843079 
	C1158.531494,644.804871 1156.855347,646.407776 1154.325684,648.826843 
	C1151.745361,644.315002 1149.374023,640.258850 1147.106567,636.145447 
	C1146.474121,634.998230 1146.467773,632.915527 1145.630859,632.566895 
	C1140.042114,630.239624 1136.622681,625.885498 1133.538086,620.978699 
	C1131.303833,617.424805 1128.060425,614.412109 1126.305176,610.671082 
	C1123.328247,604.325562 1119.966553,599.062927 1112.234131,598.095520 
	C1110.850098,597.922424 1109.317871,596.239197 1108.482788,594.869873 
	C1105.791748,590.457397 1098.619629,586.603943 1093.683105,588.048279 
	C1092.290039,588.455872 1090.682373,591.725464 1090.995239,593.326050 
	C1091.290771,594.838135 1093.810425,596.442505 1095.657349,597.007568 
	C1098.892578,597.997314 1102.068237,598.005310 1103.479614,602.316040 
	C1104.057739,604.081787 1107.602661,605.274780 1110.016357,605.965698 
	C1117.157715,608.009949 1119.314453,610.065857 1120.180664,617.436646 
	C1120.728027,622.094238 1122.088745,625.832031 1126.289551,628.749817 
	C1128.972656,630.613342 1129.985840,635.024170 1132.723267,636.633240 
	C1137.121216,639.218445 1139.454346,642.482300 1141.369629,647.119385 
	C1143.447998,652.150757 1147.399780,655.997192 1151.730591,659.837708 
	C1155.050537,662.781799 1158.658081,663.673157 1161.851929,665.864807 
	C1164.073486,667.389160 1166.149414,670.270996 1166.704956,672.883545 
	C1169.353882,685.340210 1173.879395,689.463867 1186.545654,690.343201 
	C1188.172241,690.456177 1189.729248,691.876343 1191.276367,692.764587 
	C1193.789673,694.207947 1196.268066,695.712158 1199.192383,697.446289 
	C1196.939209,698.246887 1195.173950,698.874146 1193.483887,699.474670 
	C1191.893921,703.198669 1193.666748,705.051575 1196.797363,706.510193 
	C1200.520996,708.245117 1204.141968,710.215210 1207.712646,712.249817 
	C1208.367554,712.622986 1208.595947,713.778625 1208.973999,714.594910 
	C1209.495850,715.722412 1209.700073,717.586792 1210.512573,717.896423 
	C1216.821777,720.300842 1214.584595,724.701904 1213.327881,728.896240 
	C1212.823486,730.580017 1212.196655,732.227112 1211.187622,735.166626 
	C1209.338135,731.639221 1208.015625,729.116821 1206.360962,725.960938 
	C1205.097656,726.160583 1203.215576,726.458008 1201.466187,726.734497 
	C1198.363647,722.686951 1195.291016,718.678345 1191.725220,714.026489 
	C1190.497070,716.856323 1189.719971,718.646667 1188.817017,720.800903 
	C1179.045898,714.578979 1169.165894,713.731262 1158.338379,719.898071 
	C1156.362061,717.964233 1155.104004,716.037048 1153.714355,714.209961 
	C1150.442261,709.908203 1147.257080,705.521240 1143.677734,701.487366 
	C1142.914795,700.627441 1140.253540,700.466248 1139.111938,701.116272 
	C1135.929321,702.928650 1136.268066,708.999451 1139.110474,711.347778 
	C1141.191162,713.067017 1142.860352,715.287598 1144.694458,717.301636 
	C1147.408936,720.282471 1150.107056,723.278320 1152.812134,726.267761 
M686.424255,741.123169 
	C687.167908,742.418884 687.718384,743.890076 688.699280,744.970459 
	C690.282959,746.714661 692.273376,749.590210 693.866516,749.448669 
	C695.893311,749.268738 698.288879,746.908813 699.491760,744.876770 
	C704.817444,735.880310 710.138611,726.841736 714.688904,717.444336 
	C716.615662,713.465149 717.764099,708.445190 717.300964,704.108154 
	C716.276245,694.514526 710.307800,687.960449 701.128418,685.200562 
	C691.375305,682.268066 682.646179,684.659851 676.007690,692.682678 
	C669.602417,700.423706 669.033569,708.997437 673.592102,717.789490 
	C677.564026,725.450439 681.893860,732.925842 686.424255,741.123169 
M1014.169739,623.476990 
	C1001.531921,630.806152 998.021301,643.025513 1004.991577,655.833618 
	C1009.844177,664.750488 1014.786743,673.619873 1019.804077,682.445190 
	C1023.012634,688.088745 1026.820068,688.042053 1030.003906,682.383667 
	C1034.818970,673.826294 1039.548340,665.220642 1044.316284,656.636719 
	C1050.391235,645.699646 1049.770386,637.101807 1042.287476,628.584351 
	C1035.660645,621.041199 1025.449341,619.006714 1014.169739,623.476990 
z"/>
<path fill="#040404" opacity="1.000000" stroke="none" 
	d="
M1177.798584,779.000977 
	C1181.225830,772.071655 1184.932739,765.394470 1188.810059,758.429932 
	C1190.795166,757.972961 1192.609863,757.803345 1193.951782,757.677856 
	C1195.003784,761.038330 1195.214478,764.899292 1197.218750,767.192688 
	C1199.118652,769.366760 1202.898315,769.898132 1206.629395,771.482300 
	C1203.663818,773.743530 1201.196289,775.625061 1198.728760,777.506531 
	C1198.976685,778.178467 1199.224609,778.850403 1199.472534,779.522339 
	C1202.768188,780.139648 1206.063721,780.756958 1209.643677,781.427551 
	C1210.649292,788.506592 1209.043823,790.406799 1201.310669,792.282471 
	C1198.253296,793.023926 1195.562988,795.278198 1192.323486,797.053040 
	C1191.364136,788.274597 1183.447021,784.818176 1177.798584,779.000977 
z"/>
<path fill="#000000" opacity="1.000000" stroke="none" 
	d="
M1169.152100,780.041748 
	C1169.547485,780.395020 1169.942749,780.748230 1170.613770,781.124390 
	C1179.540283,783.988342 1187.607300,793.624329 1187.278809,801.784607 
	C1181.945679,797.883362 1174.517700,797.764832 1172.822632,789.851318 
	C1172.667480,789.127441 1171.078369,788.540833 1170.052368,788.200012 
	C1161.477051,785.351685 1161.469727,785.373596 1161.348511,775.328369 
	C1161.965820,774.275574 1162.909668,773.636841 1163.070190,773.794739 
	C1164.782715,775.479431 1166.371338,777.290283 1167.993896,779.066467 
	C1167.993896,779.066467 1167.997192,778.996704 1168.071411,779.259399 
	C1168.481079,779.695312 1168.816650,779.868530 1169.152100,780.041748 
z"/>
<path fill="#080504" opacity="1.000000" stroke="none" 
	d="
M1258.673828,867.658752 
	C1257.568726,867.359192 1255.991821,866.763611 1256.005493,866.207092 
	C1256.150635,860.287292 1256.548462,854.373657 1257.784180,848.309814 
	C1259.537598,854.039185 1261.290894,859.768555 1263.157593,865.867981 
	C1262.140625,866.232788 1260.540649,866.806824 1258.673828,867.658752 
z"/>
<path fill="#292929" opacity="1.000000" stroke="none" 
	d="
M1137.110840,757.556458 
	C1132.243896,757.369507 1127.770874,757.183472 1123.297974,756.997498 
	C1129.923950,751.333435 1131.022583,751.427856 1139.153198,757.182434 
	C1139.093994,757.335754 1139.037354,757.620422 1138.975464,757.621582 
	C1138.485962,757.630615 1137.995239,757.585693 1137.110840,757.556458 
z"/>
<path fill="#DECFCE" opacity="1.000000" stroke="none" 
	d="
M1168.148560,778.709961 
	C1166.371338,777.290283 1164.782715,775.479431 1163.070190,773.794739 
	C1162.909668,773.636841 1161.965820,774.275574 1161.262695,774.903687 
	C1161.053345,772.763489 1160.966797,770.263855 1160.927002,767.394104 
	C1163.416748,770.800476 1165.859985,774.577026 1168.148560,778.709961 
z"/>
<path fill="#000000" opacity="1.000000" stroke="none" 
	d="
M1203.424316,810.833130 
	C1203.562012,811.154358 1203.389282,811.831421 1202.919189,812.251892 
	C1202.785889,811.726440 1202.949951,811.457703 1203.424316,810.833130 
z"/>
<path fill="#292929" opacity="1.000000" stroke="none" 
	d="
M1181.392822,685.005554 
	C1182.417114,683.152283 1183.829834,681.312378 1185.139893,679.606140 
	C1186.946411,680.974243 1188.804321,682.381226 1190.662354,683.788269 
	C1190.716675,684.198486 1190.771118,684.608704 1190.825562,685.018921 
	C1187.810791,685.018921 1184.796143,685.018921 1181.392822,685.005554 
z"/>
<path fill="#292929" opacity="1.000000" stroke="none" 
	d="
M1175.825439,682.186462 
	C1174.023682,678.409668 1172.222046,674.632812 1170.420288,670.855957 
	C1171.069092,670.578857 1171.717773,670.301758 1172.366577,670.024597 
	C1173.756470,673.620300 1175.146362,677.215942 1176.442383,681.307739 
	C1176.173950,681.931396 1175.999634,682.058960 1175.825439,682.186462 
z"/>
<path fill="#292929" opacity="1.000000" stroke="none" 
	d="
M1205.874512,701.650452 
	C1208.679932,701.876099 1208.679932,701.876099 1206.676025,706.705444 
	C1204.854858,705.323181 1203.165161,704.040649 1200.815186,702.257080 
	C1202.979980,702.023560 1204.229858,701.888672 1205.874512,701.650452 
z"/>
<path fill="#292929" opacity="1.000000" stroke="none" 
	d="
M1176.629150,681.642395 
	C1177.151001,681.850098 1177.391968,682.219238 1177.633057,682.588379 
	C1177.099976,682.632690 1176.566772,682.677002 1175.929565,682.453857 
	C1175.999634,682.058960 1176.173950,681.931396 1176.629150,681.642395 
z"/>
<path fill="#010101" opacity="1.000000" stroke="none" 
	d="
M1087.278076,503.096497 
	C1086.902100,503.443634 1086.331787,503.303406 1085.761230,503.163147 
	C1085.853027,502.799133 1085.944824,502.435120 1086.036621,502.071106 
	C1086.385620,502.250458 1086.734619,502.429779 1087.278076,503.096497 
z"/>
<path fill="#000000" opacity="1.000000" stroke="none" 
	d="
M1210.875122,655.058960 
	C1210.776001,654.795715 1210.886719,654.257507 1211.228149,653.960571 
	C1211.334106,654.395935 1211.209595,654.589966 1210.875122,655.058960 
z"/>
<path fill="#000000" opacity="1.000000" stroke="none" 
	d="
M1051.509033,426.572998 
	C1052.245850,426.577637 1052.730835,426.956787 1053.365723,427.714355 
	C1052.762817,427.711029 1052.010010,427.329285 1051.509033,426.572998 
z"/>
<path fill="#040404" opacity="1.000000" stroke="none" 
	d="
M1326.958008,626.192749 
	C1325.947754,629.883118 1329.059326,634.037537 1324.701782,636.576904 
	C1324.511353,636.687927 1325.323242,638.121948 1325.240601,638.893921 
	C1325.049927,640.677734 1324.970581,642.622681 1324.188721,644.169983 
	C1318.834473,654.765869 1313.298828,665.270020 1307.857300,675.822083 
	C1307.252563,676.994934 1306.892822,678.291992 1306.385132,679.517273 
	C1304.083496,685.071533 1300.900391,690.152405 1302.604736,696.954224 
	C1303.195068,699.310425 1299.596313,702.716125 1297.218018,706.845886 
	C1295.241577,702.245789 1293.854980,699.018311 1292.406494,695.647034 
	C1286.849731,697.313049 1283.951172,700.914062 1282.813843,706.154358 
	C1282.683838,706.753296 1282.445068,707.615845 1282.008179,707.817505 
	C1276.076294,710.554016 1273.395142,715.132568 1273.807495,721.635315 
	C1273.866699,722.567688 1273.735962,723.807007 1273.171631,724.437988 
	C1267.930054,730.298279 1268.054077,737.540894 1267.682129,744.694275 
	C1267.552734,747.184204 1267.139526,749.659363 1266.800537,752.626770 
	C1258.609619,754.307556 1259.423828,761.754211 1257.077271,767.937988 
	C1255.636353,763.271240 1254.701050,758.359619 1252.596802,754.014038 
	C1250.862061,750.431946 1248.511353,747.480347 1252.229370,743.944092 
	C1253.428711,742.803406 1254.625000,741.659729 1256.157349,740.198303 
	C1254.852051,739.338745 1253.734375,738.602722 1252.681885,737.909546 
	C1252.583252,730.290710 1260.939575,724.856384 1257.996826,716.569092 
	C1264.016968,712.458008 1264.171021,711.109314 1258.336548,705.493896 
	C1261.913574,702.730347 1265.357788,700.069275 1269.040649,697.223877 
	C1267.479736,696.443726 1265.804810,695.606628 1262.918579,694.164062 
	C1265.450806,691.363037 1267.747192,688.822937 1270.364624,685.927734 
	C1270.077148,685.385681 1269.424805,684.155640 1268.209106,681.863403 
	C1271.738525,681.364197 1274.676636,680.948608 1276.407227,680.703857 
	C1278.915771,673.413635 1281.269653,666.572937 1283.764648,659.321899 
	C1287.397339,658.806763 1291.607544,658.209656 1296.305298,657.543457 
	C1294.944458,655.455750 1293.831177,653.748108 1292.433350,651.603638 
	C1295.326782,651.099243 1297.651733,650.693909 1300.937744,650.121094 
	C1295.621582,645.824219 1301.511719,636.699341 1291.124023,635.218262 
	C1296.731445,632.143188 1304.810059,633.344543 1303.034912,623.802490 
	C1311.353149,622.690186 1319.637085,621.582397 1328.303223,620.423523 
	C1327.755981,622.616577 1327.367920,624.171204 1326.958008,626.192749 
z"/>
<path fill="#050101" opacity="1.000000" stroke="none" 
	d="
M1065.793823,422.930542 
	C1064.538940,416.658508 1067.037354,411.712097 1071.914673,410.174530 
	C1076.995361,408.572845 1082.311401,410.786469 1084.574341,415.446198 
	C1086.641235,419.702179 1085.128906,424.966827 1081.047607,427.723236 
	C1075.921631,431.185272 1069.763672,429.380493 1065.793823,422.930542 
z"/>
<path fill="#080504" opacity="1.000000" stroke="none" 
	d="
M621.232178,711.976990 
	C620.813293,705.143616 624.772217,700.404968 631.024536,700.255920 
	C637.029724,700.112732 641.015808,704.468140 640.674377,711.751770 
	C637.312866,714.206421 634.367859,716.164062 631.339478,718.177185 
	C629.515015,711.310120 629.188843,711.119080 621.232178,711.976990 
z"/>
<path fill="#F3F2F2" opacity="1.000000" stroke="none" 
	d="
M621.213989,712.333618 
	C629.188843,711.119080 629.515015,711.310120 631.339478,718.177185 
	C634.367859,716.164062 637.312866,714.206421 640.585327,712.164429 
	C640.125671,717.099609 636.793457,719.418518 632.118347,719.998718 
	C627.383911,720.586243 623.711304,718.000244 621.213989,712.333618 
z"/>
<path fill="#F7F7F7" opacity="1.000000" stroke="none" 
	d="
M1153.064941,726.124756 
	C1150.107056,723.278320 1147.408936,720.282471 1144.694458,717.301636 
	C1142.860352,715.287598 1141.191162,713.067017 1139.110474,711.347778 
	C1136.268066,708.999451 1135.929321,702.928650 1139.111938,701.116272 
	C1140.253540,700.466248 1142.914795,700.627441 1143.677734,701.487366 
	C1147.257080,705.521240 1150.442261,709.908203 1153.714355,714.209961 
	C1155.104004,716.037048 1156.362061,717.964233 1158.015503,720.021484 
	C1156.673340,722.125244 1154.995483,724.053528 1153.064941,726.124756 
z"/>
<path fill="#F4F4F4" opacity="1.000000" stroke="none" 
	d="
M1181.572388,743.237122 
	C1179.582397,747.433655 1175.633667,749.333862 1171.817261,748.053833 
	C1168.479126,746.934265 1164.907715,743.999695 1163.301025,740.901489 
	C1161.538330,737.502075 1163.074707,733.438110 1167.334473,731.295776 
	C1170.687500,737.500488 1176.571411,739.850586 1181.572388,743.237122 
z"/>
<path fill="#080504" opacity="1.000000" stroke="none" 
	d="
M1181.809570,742.957947 
	C1176.571411,739.850586 1170.687500,737.500488 1167.668823,731.235657 
	C1171.353638,727.481201 1175.490234,728.132080 1179.162720,730.869263 
	C1183.137695,733.831909 1184.370361,737.940002 1181.809570,742.957947 
z"/>
<path fill="#DECFCE" opacity="1.000000" stroke="none" 
	d="
M1169.035889,779.745422 
	C1168.816650,779.868530 1168.481079,779.695312 1168.036621,779.257385 
	C1168.258301,779.144836 1168.588867,779.296936 1169.035889,779.745422 
z"/>
<path fill="#E63222" opacity="1.000000" stroke="none" 
	d="
M686.244873,740.803223 
	C681.893860,732.925842 677.564026,725.450439 673.592102,717.789490 
	C669.033569,708.997437 669.602417,700.423706 676.007690,692.682678 
	C682.646179,684.659851 691.375305,682.268066 701.128418,685.200562 
	C710.307800,687.960449 716.276245,694.514526 717.300964,704.108154 
	C717.764099,708.445190 716.615662,713.465149 714.688904,717.444336 
	C710.138611,726.841736 704.817444,735.880310 699.491760,744.876770 
	C698.288879,746.908813 695.893311,749.268738 693.866516,749.448669 
	C692.273376,749.590210 690.282959,746.714661 688.699280,744.970459 
	C687.718384,743.890076 687.167908,742.418884 686.244873,740.803223 
M687.858887,699.223389 
	C687.188782,699.951782 686.427795,700.616333 685.863892,701.419312 
	C683.004211,705.492188 683.331421,709.518372 686.347229,713.321777 
	C689.088318,716.778809 694.305725,717.803223 698.582825,715.892578 
	C702.617554,714.090027 704.797729,709.809326 704.114807,705.247864 
	C703.130066,698.671326 694.551331,694.669067 687.858887,699.223389 
z"/>
<path fill="#E63222" opacity="1.000000" stroke="none" 
	d="
M1014.507507,623.296814 
	C1025.449341,619.006714 1035.660645,621.041199 1042.287476,628.584351 
	C1049.770386,637.101807 1050.391235,645.699646 1044.316284,656.636719 
	C1039.548340,665.220642 1034.818970,673.826294 1030.003906,682.383667 
	C1026.820068,688.042053 1023.012634,688.088745 1019.804077,682.445190 
	C1014.786743,673.619873 1009.844177,664.750488 1004.991577,655.833618 
	C998.021301,643.025513 1001.531921,630.806152 1014.507507,623.296814 
M1031.660645,651.198853 
	C1032.386475,650.298889 1033.249634,649.477234 1033.814453,648.485535 
	C1036.337646,644.055908 1034.998779,638.631348 1030.762695,635.786560 
	C1026.217896,632.734375 1020.174683,633.612610 1016.899353,637.801270 
	C1013.798401,641.766846 1014.182068,647.411072 1017.790710,650.914551 
	C1021.047119,654.076111 1025.722778,654.355469 1031.660645,651.198853 
z"/>
<path fill="#050101" opacity="1.000000" stroke="none" 
	d="
M688.185974,699.022095 
	C694.551331,694.669067 703.130066,698.671326 704.114807,705.247864 
	C704.797729,709.809326 702.617554,714.090027 698.582825,715.892578 
	C694.305725,717.803223 689.088318,716.778809 686.347229,713.321777 
	C683.331421,709.518372 683.004211,705.492188 685.863892,701.419312 
	C686.427795,700.616333 687.188782,699.951782 688.185974,699.022095 
z"/>
<path fill="#050101" opacity="1.000000" stroke="none" 
	d="
M1031.371826,651.453796 
	C1025.722778,654.355469 1021.047119,654.076111 1017.790710,650.914551 
	C1014.182068,647.411072 1013.798401,641.766846 1016.899353,637.801270 
	C1020.174683,633.612610 1026.217896,632.734375 1030.762695,635.786560 
	C1034.998779,638.631348 1036.337646,644.055908 1033.814453,648.485535 
	C1033.249634,649.477234 1032.386475,650.298889 1031.371826,651.453796 
z"/>
</svg>